# Blender v2.79 (sub 0) OBJ File: 'RotaryConverter.blend'
# www.blender.org
mtllib commutator4.mtl
o Commutator4_Cube.015
v 1.500000 -1.000000 1.000000
v 1.500000 0.750000 1.000000
v 1.500000 -1.000000 0.000000
v 1.500000 0.750000 0.000000
v 2.000000 -1.000000 1.000000
v 2.000000 0.750000 1.000000
v 2.000000 -1.000000 0.000000
v 2.000000 0.750000 0.000000
v 0.250000 0.750000 0.531250
v -1.000000 0.750000 1.000000
v -1.000000 1.000000 1.000000
v -1.000000 0.750000 0.000000
v -1.000000 1.000000 0.000000
v 2.000000 0.750000 1.000000
v 2.000000 1.000000 1.000000
v 2.000000 0.750000 0.000000
v 2.000000 1.000000 0.000000
v -1.000000 -1.000000 1.000000
v -1.000000 0.750000 1.000000
v -1.000000 -1.000000 0.000000
v -1.000000 0.750000 0.000000
v -0.500000 -1.000000 1.000000
v -0.500000 0.750000 1.000000
v -0.500000 -1.000000 0.000000
v -0.500000 0.750000 0.000000
v 0.250000 0.593750 0.812500
v 0.500000 0.593750 0.812500
v 0.250000 0.593750 0.937500
v 0.500000 0.406250 0.187500
v 0.250000 0.406250 0.187500
v 0.500000 0.406250 0.062500
v 0.250000 0.406250 0.062500
v 0.500000 0.593750 0.187500
v 0.250000 0.593750 0.187500
v 0.500000 0.593750 0.062500
v 0.250000 0.593750 0.062500
v 0.500000 0.593750 0.937500
v 0.250000 0.406250 0.812500
v 0.500000 0.406250 0.812500
v 0.250000 0.406250 0.937500
v 0.500000 0.406250 0.937500
v 0.250000 0.750000 0.781250
v 0.250000 0.375000 0.781250
v 0.250000 0.750000 0.781250
v 0.250000 0.750000 0.968750
v 0.250000 0.375000 0.968750
v 0.125000 0.750000 0.781250
v 0.125000 0.375000 0.781250
v 0.125000 0.750000 0.968750
v 0.125000 0.375000 0.968750
v 0.125000 0.375000 0.718750
v 0.250000 0.750000 0.281250
v 0.125000 0.375000 0.218750
v 0.125000 0.750000 0.218750
v 0.125000 0.375000 0.031250
v 0.125000 0.750000 0.031250
v 0.250000 0.375000 0.218750
v 0.250000 0.750000 0.218750
v 0.250000 0.375000 0.031250
v 0.250000 0.750000 0.031250
v 0.250000 0.593750 0.312500
v 0.500000 0.593750 0.312500
v 0.125000 0.750000 0.718750
v 0.125000 0.375000 0.531250
v 0.250000 0.593750 0.437500
v 0.500000 0.593750 0.437500
v 0.125000 0.750000 0.531250
v 0.250000 0.375000 0.718750
v 0.250000 0.750000 0.718750
v 0.250000 0.375000 0.531250
v 0.250000 0.750000 0.531250
v 0.500000 0.406250 0.687500
v 0.250000 0.406250 0.687500
v 0.500000 0.406250 0.562500
v 0.250000 0.406250 0.562500
v 0.500000 0.593750 0.687500
v 0.250000 0.406250 0.312500
v 0.500000 0.406250 0.312500
v 0.250000 0.593750 0.687500
v 0.500000 0.593750 0.562500
v 0.250000 0.406250 0.437500
v 0.500000 0.406250 0.437500
v 0.250000 0.593750 0.562500
v 0.250000 0.750000 0.281250
v 0.250000 0.375000 0.281250
v 0.250000 0.750000 0.468750
v 0.250000 0.375000 0.468750
v 0.125000 0.750000 0.281250
v 0.125000 0.375000 0.281250
v 0.750000 0.750000 0.781250
v 0.125000 0.750000 0.468750
v 0.125000 0.375000 0.468750
v -1.000000 0.000000 1.000000
v -1.000000 0.000000 0.000000
v 2.000000 0.000000 0.000000
v 2.000000 0.000000 1.000000
v 0.750000 0.593750 0.937500
v 0.500000 0.593750 0.937500
v 0.750000 0.593750 0.812500
v 0.500000 0.593750 0.812500
v 0.750000 0.406250 0.937500
v 0.500000 0.406250 0.937500
v 0.750000 0.406250 0.812500
v 0.500000 0.406250 0.812500
v 0.750000 0.750000 0.968750
v 0.750000 0.375000 0.968750
v 0.750000 0.750000 0.781250
v 0.750000 0.375000 0.781250
v 0.875000 0.750000 0.968750
v 0.875000 0.375000 0.968750
v 0.875000 0.750000 0.781250
v 0.875000 0.375000 0.781250
v 0.750000 0.593750 0.687500
v 0.500000 0.593750 0.687500
v 0.750000 0.593750 0.562500
v 0.500000 0.593750 0.562500
v 0.750000 0.406250 0.687500
v 0.500000 0.406250 0.687500
v 0.750000 0.406250 0.562500
v 0.500000 0.406250 0.562500
v 0.750000 0.750000 0.718750
v 0.750000 0.375000 0.718750
v 0.750000 0.750000 0.531250
v 0.750000 0.375000 0.531250
v 0.875000 0.750000 0.718750
v 0.875000 0.375000 0.718750
v 0.875000 0.750000 0.531250
v 0.875000 0.375000 0.531250
v 0.750000 0.593750 0.437500
v 0.500000 0.593750 0.437500
v 0.750000 0.593750 0.312500
v 0.500000 0.593750 0.312500
v 0.750000 0.406250 0.437500
v 0.500000 0.406250 0.437500
v 0.750000 0.406250 0.312500
v 0.500000 0.406250 0.312500
v 0.750000 0.750000 0.468750
v 0.750000 0.375000 0.468750
v 0.750000 0.750000 0.281250
v 0.750000 0.375000 0.281250
v 0.875000 0.750000 0.468750
v 0.875000 0.375000 0.468750
v 0.875000 0.750000 0.281250
v 0.875000 0.375000 0.281250
v 0.750000 0.593750 0.187500
v 0.500000 0.593750 0.187500
v 0.750000 0.593750 0.062500
v 0.500000 0.593750 0.062500
v 0.750000 0.406250 0.187500
v 0.500000 0.406250 0.187500
v 0.750000 0.406250 0.062500
v 0.500000 0.406250 0.062500
v 0.750000 0.750000 0.218750
v 0.750000 0.375000 0.218750
v 0.750000 0.750000 0.031250
v 0.750000 0.375000 0.031250
v 0.875000 0.750000 0.218750
v 0.875000 0.375000 0.218750
v 0.875000 0.750000 0.031250
v 0.875000 0.375000 0.031250
vt 0.437500 0.666667
vt 1.000000 0.666667
vt 1.000000 0.333333
vt 0.437500 0.333333
vt 0.583333 0.500000
vt -0.000000 0.500000
vt 0.000000 0.333333
vt 0.583333 0.333333
vt 0.666667 0.666667
vt 0.666667 0.916667
vt 0.333333 0.916667
vt 0.333333 0.666667
vt 0.583333 0.333333
vt 0.583333 0.500000
vt -0.000000 0.500000
vt 0.000000 0.333333
vt 0.437500 0.437500
vt 0.562500 0.437500
vt 0.562500 0.562500
vt 0.437500 0.562500
vt 0.333333 0.770833
vt 0.333333 0.895833
vt 0.229167 0.895833
vt 0.229167 0.770833
vt 0.666667 0.916667
vt 0.666667 1.000000
vt 0.333333 1.000000
vt 0.333333 0.916667
vt 1.000000 0.312500
vt 1.000000 0.416667
vt 0.000000 0.416667
vt 0.000000 0.312500
vt 0.666667 0.916667
vt 0.666667 1.000000
vt 0.333333 1.000000
vt 0.333333 0.916667
vt 0.000000 0.416667
vt -0.000000 0.312500
vt 1.000000 0.312500
vt 1.000000 0.416667
vt 1.000000 0.333333
vt 0.000000 -0.000000
vt 1.000000 0.000000
vt 0.000000 0.000000
vt 1.000000 0.000000
vt 1.000000 0.333333
vt -0.000000 0.333333
vt 0.666667 0.666667
vt 0.666667 0.916667
vt 0.333333 0.916667
vt 0.333333 0.666667
vt -0.000000 0.333333
vt 0.000000 0.500000
vt 0.583333 0.500000
vt 0.583333 0.333333
vt 0.437500 0.666667
vt 1.000000 0.666667
vt 1.000000 0.333333
vt 0.437500 0.333333
vt 0.583333 0.333333
vt 0.583333 0.500000
vt 0.000000 0.500000
vt -0.000000 0.333333
vt 0.437500 0.666667
vt 0.437500 0.562500
vt 0.562500 0.562500
vt 0.562500 0.666667
vt 0.562500 0.333333
vt 0.562500 0.437500
vt 0.437500 0.437500
vt 0.437500 0.333333
vt 0.250000 0.583333
vt 0.333333 0.583333
vt 0.333333 0.625000
vt 0.250000 0.625000
vt 0.250000 0.604167
vt 0.333333 0.604167
vt 0.333333 0.666667
vt 0.250000 0.666667
vt 0.250000 0.625000
vt 0.333333 0.625000
vt 0.333333 0.666667
vt 0.250000 0.666667
vt 0.166667 0.645833
vt 0.250000 0.645833
vt 0.250000 0.583333
vt 0.166667 0.583333
vt 0.250000 0.583333
vt 0.333333 0.583333
vt 0.333333 0.625000
vt 0.250000 0.625000
vt 0.583333 0.625000
vt 0.604167 0.625000
vt 0.604167 0.645833
vt 0.583333 0.645833
vt 0.250000 0.625000
vt 0.333333 0.625000
vt 0.333333 0.666667
vt 0.250000 0.666667
vt 0.333333 0.562500
vt 0.208333 0.562500
vt 0.208333 0.500000
vt 0.333333 0.500000
vt 0.333333 0.562500
vt 0.208333 0.562500
vt 0.208333 0.500000
vt 0.333333 0.500000
vt 0.333333 0.583333
vt 0.208333 0.583333
vt 0.208333 0.541667
vt 0.333333 0.541667
vt 0.208333 0.520833
vt 0.333333 0.520833
vt 0.333333 0.583333
vt 0.208333 0.583333
vt 0.083333 0.520833
vt 0.208333 0.520833
vt 0.083333 0.562500
vt 0.270833 0.541667
vt 0.270833 0.500000
vt 0.333333 0.500000
vt 0.333333 0.541667
vt 0.375000 0.895833
vt 0.375000 0.916667
vt 0.354167 0.916667
vt 0.354167 0.895833
vt 0.250000 0.604167
vt 0.333333 0.604167
vt 0.333333 0.666667
vt 0.250000 0.666667
vt 0.083333 0.520833
vt 0.208333 0.520833
vt 0.083333 0.562500
vt 0.333333 0.583333
vt 0.208333 0.583333
vt 0.208333 0.541667
vt 0.333333 0.541667
vt 0.250000 0.625000
vt 0.333333 0.625000
vt 0.333333 0.666667
vt 0.250000 0.666667
vt 0.250000 0.583333
vt 0.333333 0.583333
vt 0.333333 0.625000
vt 0.250000 0.625000
vt 0.270833 0.541667
vt 0.270833 0.500000
vt 0.333333 0.500000
vt 0.333333 0.541667
vt 0.208333 0.520833
vt 0.333333 0.520833
vt 0.333333 0.583333
vt 0.208333 0.583333
vt 0.208333 0.520833
vt 0.333333 0.520833
vt 0.333333 0.583333
vt 0.208333 0.583333
vt 0.166667 0.645833
vt 0.250000 0.645833
vt 0.250000 0.583333
vt 0.166667 0.583333
vt 0.333333 0.583333
vt 0.208333 0.583333
vt 0.208333 0.541667
vt 0.333333 0.541667
vt 0.166667 0.645833
vt 0.250000 0.645833
vt 0.250000 0.583333
vt 0.166667 0.583333
vt 0.270833 0.541667
vt 0.270833 0.500000
vt 0.333333 0.500000
vt 0.333333 0.541667
vt 0.083333 0.520833
vt 0.208333 0.520833
vt 0.208333 0.562500
vt 0.083333 0.562500
vt 0.250000 0.604167
vt 0.333333 0.604167
vt 0.333333 0.666667
vt 0.250000 0.666667
vt 0.250000 0.583333
vt 0.333333 0.583333
vt 0.333333 0.625000
vt 0.250000 0.625000
vt 0.250000 0.604167
vt 0.333333 0.604167
vt 0.333333 0.666667
vt 0.250000 0.666667
vt 0.333333 0.562500
vt 0.208333 0.500000
vt 0.333333 0.500000
vt 0.250000 0.625000
vt 0.333333 0.625000
vt 0.333333 0.666667
vt 0.250000 0.666667
vt 0.083333 0.520833
vt 0.208333 0.520833
vt 0.208333 0.562500
vt 0.083333 0.562500
vt 0.333333 0.562500
vt 0.208333 0.500000
vt 0.333333 0.500000
vt 0.166667 0.645833
vt 0.250000 0.645833
vt 0.250000 0.583333
vt 0.166667 0.583333
vt 0.208333 0.520833
vt 0.333333 0.520833
vt 0.333333 0.583333
vt 0.208333 0.583333
vt 0.270833 0.541667
vt 0.270833 0.500000
vt 0.333333 0.500000
vt 0.333333 0.541667
vt 0.333333 0.583333
vt 0.208333 0.583333
vt 0.208333 0.541667
vt 0.333333 0.541667
vt 0.666667 0.666667
vt 0.666667 1.000000
vt 0.333333 1.000000
vt 0.333333 0.666667
vt 0.666667 0.666667
vt 0.666667 1.000000
vt 0.333333 1.000000
vt 0.333333 0.666667
vt 0.250000 0.625000
vt 0.333333 0.625000
vt 0.333333 0.666667
vt 0.250000 0.666667
vt 0.333333 0.562500
vt 0.208333 0.562500
vt 0.208333 0.500000
vt 0.333333 0.500000
vt 0.250000 0.604167
vt 0.333333 0.604167
vt 0.333333 0.666667
vt 0.250000 0.666667
vt 0.083333 0.520833
vt 0.208333 0.520833
vt 0.083333 0.562500
vt 0.333333 0.583333
vt 0.208333 0.583333
vt 0.208333 0.541667
vt 0.333333 0.541667
vt 0.250000 0.583333
vt 0.333333 0.583333
vt 0.333333 0.625000
vt 0.250000 0.625000
vt 0.270833 0.541667
vt 0.270833 0.500000
vt 0.333333 0.500000
vt 0.333333 0.541667
vt 0.208333 0.520833
vt 0.333333 0.520833
vt 0.333333 0.583333
vt 0.208333 0.583333
vt 0.166667 0.645833
vt 0.250000 0.645833
vt 0.250000 0.583333
vt 0.166667 0.583333
vt 0.250000 0.625000
vt 0.333333 0.625000
vt 0.333333 0.666667
vt 0.250000 0.666667
vt 0.333333 0.562500
vt 0.208333 0.562500
vt 0.208333 0.500000
vt 0.333333 0.500000
vt 0.250000 0.604167
vt 0.333333 0.604167
vt 0.333333 0.666667
vt 0.250000 0.666667
vt 0.083333 0.520833
vt 0.208333 0.520833
vt 0.083333 0.562500
vt 0.333333 0.583333
vt 0.208333 0.583333
vt 0.208333 0.541667
vt 0.333333 0.541667
vt 0.250000 0.583333
vt 0.333333 0.583333
vt 0.333333 0.625000
vt 0.250000 0.625000
vt 0.270833 0.541667
vt 0.270833 0.500000
vt 0.333333 0.500000
vt 0.333333 0.541667
vt 0.208333 0.520833
vt 0.333333 0.520833
vt 0.333333 0.583333
vt 0.208333 0.583333
vt 0.166667 0.645833
vt 0.250000 0.645833
vt 0.250000 0.583333
vt 0.166667 0.583333
vt 0.250000 0.625000
vt 0.333333 0.625000
vt 0.333333 0.666667
vt 0.250000 0.666667
vt 0.333333 0.562500
vt 0.208333 0.562500
vt 0.208333 0.500000
vt 0.333333 0.500000
vt 0.250000 0.604167
vt 0.333333 0.604167
vt 0.333333 0.666667
vt 0.250000 0.666667
vt 0.083333 0.520833
vt 0.208333 0.520833
vt 0.083333 0.562500
vt 0.333333 0.583333
vt 0.208333 0.583333
vt 0.208333 0.541667
vt 0.333333 0.541667
vt 0.250000 0.583333
vt 0.333333 0.583333
vt 0.333333 0.625000
vt 0.250000 0.625000
vt 0.270833 0.541667
vt 0.270833 0.500000
vt 0.333333 0.500000
vt 0.333333 0.541667
vt 0.208333 0.520833
vt 0.333333 0.520833
vt 0.333333 0.583333
vt 0.208333 0.583333
vt 0.166667 0.645833
vt 0.250000 0.645833
vt 0.250000 0.583333
vt 0.166667 0.583333
vt 0.250000 0.625000
vt 0.333333 0.625000
vt 0.333333 0.666667
vt 0.250000 0.666667
vt 0.333333 0.562500
vt 0.208333 0.562500
vt 0.208333 0.500000
vt 0.333333 0.500000
vt 0.250000 0.604167
vt 0.333333 0.604167
vt 0.333333 0.666667
vt 0.250000 0.666667
vt 0.083333 0.520833
vt 0.208333 0.520833
vt 0.083333 0.562500
vt 0.333333 0.583333
vt 0.208333 0.583333
vt 0.208333 0.541667
vt 0.333333 0.541667
vt 0.250000 0.583333
vt 0.333333 0.583333
vt 0.333333 0.625000
vt 0.250000 0.625000
vt 0.270833 0.541667
vt 0.270833 0.500000
vt 0.333333 0.500000
vt 0.333333 0.541667
vt 0.208333 0.520833
vt 0.333333 0.520833
vt 0.333333 0.583333
vt 0.208333 0.583333
vt 0.166667 0.645833
vt 0.250000 0.645833
vt 0.250000 0.583333
vt 0.166667 0.583333
vn -1.0000 0.0000 0.0000
vn 0.0000 0.0000 -1.0000
vn 1.0000 0.0000 0.0000
vn 0.0000 -1.0000 0.0000
vn 0.0000 1.0000 0.0000
vn 0.0000 0.0000 1.0000
usemtl None
s off
f 1/1/1 2/2/1 4/3/1 3/4/1
f 3/5/2 4/6/2 16/7/2 7/8/2
f 95/9/3 8/10/3 6/11/3 96/12/3
f 24/13/2 20/14/2 21/15/2 25/16/2
f 3/17/4 7/18/4 5/19/4 1/20/4
f 8/21/5 4/22/5 2/23/5 6/24/5
f 10/25/1 11/26/1 13/27/1 12/28/1
f 12/29/2 13/30/2 17/31/2 16/32/2
f 16/33/3 17/34/3 15/35/3 14/36/3
f 14/37/6 15/38/6 11/39/6 10/40/6
f 12/41/4 16/7/4 14/42/4 10/43/4
f 17/44/5 13/45/5 11/46/5 15/47/5
f 93/48/1 19/49/1 21/50/1 94/51/1
f 23/52/6 19/53/6 18/54/6 22/55/6
f 24/56/3 25/57/3 23/58/3 22/59/3
f 1/60/6 5/61/6 14/62/6 2/63/6
f 20/64/4 24/65/4 22/66/4 18/67/4
f 25/68/5 21/69/5 19/70/5 23/71/5
f 29/72/4 30/73/4 32/74/4 31/75/4
f 31/76/2 32/77/2 36/78/2 35/79/2
f 35/80/5 36/81/5 34/82/5 33/83/5
f 33/84/6 34/85/6 30/86/6 29/87/6
f 82/88/4 81/89/4 77/90/4 78/91/4
f 36/92/1 32/93/1 30/94/1 34/95/1
f 27/96/5 26/97/5 28/98/5 37/99/5
f 50/100/1 49/101/1 47/102/1 48/103/1
f 53/104/1 54/105/1 56/106/1 55/107/1
f 55/108/2 56/109/2 60/110/2 59/111/2
f 59/112/3 60/113/3 58/114/3 57/115/3
f 57/116/6 58/117/6 54/105/6 53/118/6
f 55/119/4 59/120/4 57/121/4 53/122/4
f 60/123/5 56/124/5 54/125/5 58/126/5
f 39/127/2 38/128/2 26/129/2 27/130/2
f 46/131/6 45/132/6 49/101/6 50/133/6
f 48/134/2 47/135/2 42/136/2 43/137/2
f 62/138/5 61/139/5 65/140/5 66/141/5
f 41/142/4 40/143/4 38/144/4 39/145/4
f 48/146/4 43/147/4 46/148/4 50/149/4
f 43/150/3 42/151/3 45/152/3 46/153/3
f 70/154/3 71/155/3 69/156/3 68/157/3
f 76/158/6 79/159/6 73/160/6 72/161/6
f 64/162/2 67/163/2 71/164/2 70/165/2
f 37/166/6 28/167/6 40/168/6 41/169/6
f 64/170/4 70/171/4 68/172/4 51/173/4
f 68/174/6 69/175/6 63/176/6 51/177/6
f 74/178/2 75/179/2 83/180/2 80/181/2
f 72/182/4 73/183/4 75/184/4 74/185/4
f 78/186/2 77/187/2 61/188/2 62/189/2
f 51/190/1 63/176/1 67/191/1 64/192/1
f 80/193/5 83/194/5 79/195/5 76/196/5
f 87/197/6 86/198/6 91/199/6 92/200/6
f 92/201/1 91/199/1 88/202/1 89/203/1
f 66/204/6 65/205/6 81/206/6 82/207/6
f 85/208/3 84/209/3 86/210/3 87/211/3
f 89/212/4 85/213/4 87/214/4 92/215/4
f 89/216/2 88/217/2 84/218/2 85/219/2
f 18/220/1 93/221/1 94/222/1 20/223/1
f 7/224/3 95/225/3 96/226/3 5/227/3
f 98/228/5 97/229/5 99/230/5 100/231/5
f 112/232/3 111/233/3 109/234/3 110/235/3
f 102/236/6 101/237/6 97/238/6 98/239/6
f 108/240/2 107/241/2 111/233/2 112/242/2
f 110/243/6 109/244/6 105/245/6 106/246/6
f 104/247/4 103/248/4 101/249/4 102/250/4
f 110/251/4 106/252/4 108/253/4 112/254/4
f 106/255/1 105/256/1 107/257/1 108/258/1
f 100/259/2 99/260/2 103/261/2 104/262/2
f 114/263/5 113/264/5 115/265/5 116/266/5
f 128/267/3 127/268/3 125/269/3 126/270/3
f 118/271/6 117/272/6 113/273/6 114/274/6
f 124/275/2 123/276/2 127/268/2 128/277/2
f 126/278/6 125/279/6 121/280/6 122/281/6
f 120/282/4 119/283/4 117/284/4 118/285/4
f 126/286/4 122/287/4 124/288/4 128/289/4
f 122/290/1 121/291/1 123/292/1 124/293/1
f 116/294/2 115/295/2 119/296/2 120/297/2
f 130/298/5 129/299/5 131/300/5 132/301/5
f 144/302/3 143/303/3 141/304/3 142/305/3
f 134/306/6 133/307/6 129/308/6 130/309/6
f 140/310/2 139/311/2 143/303/2 144/312/2
f 142/313/6 141/314/6 137/315/6 138/316/6
f 136/317/4 135/318/4 133/319/4 134/320/4
f 142/321/4 138/322/4 140/323/4 144/324/4
f 138/325/1 137/326/1 139/327/1 140/328/1
f 132/329/2 131/330/2 135/331/2 136/332/2
f 146/333/5 145/334/5 147/335/5 148/336/5
f 160/337/3 159/338/3 157/339/3 158/340/3
f 150/341/6 149/342/6 145/343/6 146/344/6
f 156/345/2 155/346/2 159/338/2 160/347/2
f 158/348/6 157/349/6 153/350/6 154/351/6
f 152/352/4 151/353/4 149/354/4 150/355/4
f 158/356/4 154/357/4 156/358/4 160/359/4
f 154/360/1 153/361/1 155/362/1 156/363/1
f 148/364/2 147/365/2 151/366/2 152/367/2
