# Blender v2.79 (sub 0) OBJ File: 'RotaryConverter.blend'
# www.blender.org
mtllib four_coil.mtl
o Rotor4Phase_Cylinder.008
v 1.062500 0.732995 0.267005
v 0.732995 1.062500 0.267005
v 1.062500 0.732995 0.732995
v 0.732995 1.062500 0.732995
v 1.062500 0.267005 0.267005
v 1.062500 0.732995 0.267005
v 1.062500 0.267005 0.732995
v 1.062500 0.732995 0.732995
v 0.732995 -0.062500 0.267005
v 1.062500 0.267005 0.267005
v 0.732995 -0.062500 0.732995
v 1.062500 0.267005 0.732995
v 0.267005 -0.062500 0.267005
v 0.732995 -0.062500 0.267005
v 0.267005 -0.062500 0.732995
v 0.732995 -0.062500 0.732995
v -0.062500 0.732995 0.267005
v -0.062500 0.267005 0.267005
v -0.062500 0.732995 0.732995
v -0.062500 0.267005 0.732995
v 0.267005 1.062500 0.267005
v -0.062500 0.732995 0.267005
v 0.267005 1.062500 0.732995
v -0.062500 0.732995 0.732995
v 0.732995 1.062500 0.267005
v 0.267005 1.062500 0.267005
v 0.732995 1.062500 0.732995
v 0.267005 1.062500 0.732995
v -0.062500 0.732995 1.000000
v -0.062500 0.732995 0.000000
v -0.062500 0.267005 1.000000
v -0.062500 0.267005 0.000000
v 0.267005 -0.062500 1.000000
v 0.267005 -0.062500 0.000000
v 0.732995 -0.062500 1.000000
v 0.732995 -0.062500 0.000000
v 1.062500 0.267005 1.000000
v 1.062500 0.267005 0.000000
v 1.062500 0.732995 1.000000
v 1.062500 0.732995 0.000000
v 0.732995 1.062500 1.000000
v 0.732995 1.062500 0.000000
v 0.267005 1.062500 1.000000
v 0.267005 1.062500 0.000000
v 0.267005 -0.437500 0.267005
v 0.267005 -0.062500 0.267005
v 0.732995 -0.437500 0.267005
v 0.732995 -0.062500 0.267005
v 0.267005 -0.437500 0.732995
v 0.267005 -0.062500 0.732995
v 0.732995 -0.437500 0.732995
v 0.732995 -0.062500 0.732995
v -0.437500 0.732995 0.267005
v -0.062500 0.732995 0.267005
v -0.437500 0.267005 0.267005
v -0.062500 0.267005 0.267005
v -0.437500 0.732995 0.732995
v -0.062500 0.732995 0.732995
v -0.437500 0.267005 0.732995
v -0.062500 0.267005 0.732995
v -0.437500 0.732995 0.267005
v -0.062500 0.732995 0.267005
v -0.437500 0.267005 0.267005
v -0.062500 0.267005 0.267005
v -0.437500 0.732995 0.732995
v -0.062500 0.732995 0.732995
v -0.437500 0.267005 0.732995
v -0.062500 0.267005 0.732995
v 0.732995 1.437500 0.267005
v 0.732995 1.062500 0.267005
v 0.267005 1.437500 0.267005
v 0.267005 1.062500 0.267005
v 0.732995 1.437500 0.732995
v 0.732995 1.062500 0.732995
v 0.267005 1.437500 0.732995
v 0.267005 1.062500 0.732995
v 1.437500 0.267005 0.267005
v 1.062500 0.267005 0.267005
v 1.437500 0.732995 0.267005
v 1.062500 0.732995 0.267005
v 1.437500 0.267005 0.732995
v 1.062500 0.267005 0.732995
v 1.437500 0.732995 0.732995
v 1.062500 0.732995 0.732995
v 0.998160 -0.327665 0.267005
v 0.732995 -0.062500 0.267005
v 1.327665 0.001840 0.267005
v 1.062500 0.267005 0.267005
v 0.998160 -0.327665 0.732995
v 0.732995 -0.062500 0.732995
v 1.327665 0.001840 0.732995
v 1.062500 0.267005 0.732995
v -0.327665 0.001840 0.267005
v -0.062500 0.267005 0.267005
v 0.001840 -0.327665 0.267005
v 0.267005 -0.062500 0.267005
v -0.327665 0.001840 0.732995
v -0.062500 0.267005 0.732995
v 0.001840 -0.327665 0.732995
v 0.267005 -0.062500 0.732995
v 0.001840 1.327665 0.267005
v 0.267005 1.062500 0.267005
v -0.327665 0.998160 0.267005
v -0.062500 0.732995 0.267005
v 0.001840 1.327665 0.732995
v 0.267005 1.062500 0.732995
v -0.327665 0.998160 0.732995
v -0.062500 0.732995 0.732995
v -0.162912 1.162912 0.267005
v 0.134423 1.195082 0.267005
v 0.102252 0.897747 0.267005
v -0.195082 0.865578 0.267005
v -0.327665 0.998160 0.500000
v -0.062500 0.732995 0.500000
v -0.195083 0.865578 0.732995
v -0.162913 1.162913 0.732995
v 0.102252 0.897747 0.732995
v 0.134422 1.195082 0.732995
v 0.001840 1.327665 0.500000
v 0.267005 1.062500 0.500000
v -0.162912 1.162913 0.500000
v 0.134422 1.195082 0.500000
v -0.030330 1.030330 0.732995
v -0.195083 0.865578 0.500000
v -0.030330 1.030330 0.267005
v 1.327665 0.998160 0.267005
v 1.062500 0.732995 0.267005
v 0.998160 1.327665 0.267005
v 0.732995 1.062500 0.267005
v 1.327665 0.998160 0.732995
v 1.062500 0.732995 0.732995
v 0.998160 1.327665 0.732995
v 0.732995 1.062500 0.732995
v 1.162913 1.162912 0.267005
v 1.195082 0.865577 0.267005
v 0.897747 0.897748 0.267005
v 0.865578 1.195082 0.267005
v 0.998160 1.327665 0.500000
v 0.732995 1.062500 0.500000
v 0.865578 1.195083 0.732995
v 1.162913 1.162913 0.732995
v 0.897747 0.897748 0.732995
v 1.195082 0.865578 0.732995
v 1.327665 0.998160 0.500000
v 1.062500 0.732995 0.500000
v 1.162912 1.162912 0.500000
v 1.195082 0.865578 0.500000
v 1.030330 1.030330 0.732995
v 0.865578 1.195083 0.500000
v 1.030330 1.030330 0.267005
vt 0.375000 0.434000
vt 0.375000 0.583333
vt 0.041667 0.583333
vt 0.041667 0.434000
vt 0.375000 0.434000
vt 0.375000 0.583333
vt 0.041667 0.583333
vt 0.041667 0.434000
vt 0.041667 0.583333
vt 0.041667 0.434000
vt 0.375000 0.434000
vt 0.375000 0.583333
vt 0.041667 0.583333
vt 0.041667 0.434000
vt 0.375000 0.434000
vt 0.375000 0.583333
vt 0.375000 0.434000
vt 0.375000 0.583333
vt 0.041667 0.583333
vt 0.041667 0.434000
vt 0.041667 0.434000
vt 0.375000 0.434000
vt 0.375000 0.583333
vt 0.041667 0.583333
vt 0.041667 0.434000
vt 0.375000 0.434000
vt 0.375000 0.583333
vt 0.041667 0.583333
vt 0.520833 0.408000
vt 0.408000 0.520833
vt 0.408000 0.145833
vt 0.520833 0.244333
vt 0.145833 0.244333
vt 0.258667 0.145833
vt 0.258667 0.520833
vt 0.145833 0.408000
vt 0.375000 0.434000
vt 0.375000 0.583333
vt 0.041667 0.583333
vt 0.041667 0.434000
vt 0.258667 0.520833
vt 0.145833 0.408000
vt 0.145833 0.244333
vt 0.258667 0.145833
vt 0.408000 0.520833
vt 0.408000 0.145833
vt 0.520833 0.244333
vt 0.520833 0.408000
vt 0.758667 0.250000
vt 0.908000 0.250000
vt 0.908000 0.375000
vt 0.758667 0.375000
vt 0.758667 0.375000
vt 0.908000 0.375000
vt 0.908000 0.500000
vt 0.758667 0.500000
vt 0.908000 0.250000
vt 0.758667 0.250000
vt 0.758667 0.125000
vt 0.908000 0.125000
vt 0.758667 0.000000
vt 0.908000 0.000000
vt 0.758667 0.125000
vt 0.241333 0.758667
vt 0.241333 0.908000
vt 0.092000 0.908000
vt 0.092000 0.758667
vt 0.758667 0.250000
vt 0.908000 0.250000
vt 0.908000 0.375000
vt 0.758667 0.375000
vt 0.758667 0.375000
vt 0.908000 0.375000
vt 0.908000 0.500000
vt 0.758667 0.500000
vt 0.908000 0.250000
vt 0.758667 0.250000
vt 0.758667 0.125000
vt 0.908000 0.125000
vt 0.758667 0.000000
vt 0.908000 0.000000
vt 0.758667 0.125000
vt 0.241333 0.758667
vt 0.241333 0.908000
vt 0.092000 0.908000
vt 0.092000 0.758667
vt 0.758667 0.250000
vt 0.908000 0.250000
vt 0.908000 0.375000
vt 0.758667 0.375000
vt 0.758667 0.375000
vt 0.908000 0.375000
vt 0.908000 0.500000
vt 0.758667 0.500000
vt 0.908000 0.250000
vt 0.758667 0.250000
vt 0.758667 0.125000
vt 0.908000 0.125000
vt 0.758667 0.000000
vt 0.908000 0.000000
vt 0.758667 0.125000
vt 0.241333 0.758667
vt 0.241333 0.908000
vt 0.092000 0.908000
vt 0.092000 0.758667
vt 0.758667 0.250000
vt 0.908000 0.250000
vt 0.908000 0.375000
vt 0.758667 0.375000
vt 0.758667 0.375000
vt 0.908000 0.375000
vt 0.908000 0.500000
vt 0.758667 0.500000
vt 0.908000 0.250000
vt 0.758667 0.250000
vt 0.758667 0.125000
vt 0.908000 0.125000
vt 0.758667 0.000000
vt 0.908000 0.000000
vt 0.758667 0.125000
vt 0.241333 0.758667
vt 0.241333 0.908000
vt 0.092000 0.908000
vt 0.092000 0.758667
vt 0.758667 0.250000
vt 0.908000 0.250000
vt 0.908000 0.375000
vt 0.758667 0.375000
vt 0.758667 0.375000
vt 0.908000 0.375000
vt 0.908000 0.500000
vt 0.758667 0.500000
vt 0.908000 0.250000
vt 0.758667 0.250000
vt 0.758667 0.125000
vt 0.908000 0.125000
vt 0.758667 0.000000
vt 0.908000 0.000000
vt 0.758667 0.125000
vt 0.241333 0.758667
vt 0.241333 0.908000
vt 0.092000 0.908000
vt 0.092000 0.758667
vt 0.758667 0.250000
vt 0.908000 0.250000
vt 0.908000 0.375000
vt 0.758667 0.375000
vt 0.758667 0.375000
vt 0.908000 0.375000
vt 0.908000 0.500000
vt 0.758667 0.500000
vt 0.908000 0.250000
vt 0.758667 0.250000
vt 0.758667 0.125000
vt 0.908000 0.125000
vt 0.758667 0.000000
vt 0.908000 0.000000
vt 0.758667 0.125000
vt 0.241333 0.758667
vt 0.241333 0.908000
vt 0.092000 0.908000
vt 0.092000 0.758667
vt 0.758667 0.250000
vt 0.908000 0.250000
vt 0.908000 0.375000
vt 0.758667 0.375000
vt 0.758667 0.375000
vt 0.908000 0.375000
vt 0.908000 0.500000
vt 0.758667 0.500000
vt 0.908000 0.250000
vt 0.758667 0.250000
vt 0.758667 0.125000
vt 0.908000 0.125000
vt 0.758667 0.000000
vt 0.908000 0.000000
vt 0.758667 0.125000
vt 0.241333 0.758667
vt 0.241333 0.908000
vt 0.092000 0.908000
vt 0.092000 0.758667
vt 0.833333 0.312500
vt 0.908000 0.312500
vt 0.908000 0.375000
vt 0.833333 0.375000
vt 0.833333 0.437500
vt 0.908000 0.437500
vt 0.908000 0.500000
vt 0.833333 0.500000
vt 0.833333 0.187500
vt 0.758667 0.187500
vt 0.758667 0.125000
vt 0.833333 0.125000
vt 0.833333 0.062500
vt 0.908000 0.062500
vt 0.908000 0.125000
vt 0.833333 0.125000
vt 0.166667 0.833333
vt 0.166667 0.908000
vt 0.092000 0.908000
vt 0.092000 0.833333
vt 0.166667 0.758667
vt 0.092000 0.758667
vt 0.241333 0.758667
vt 0.241333 0.833333
vt 0.241333 0.908000
vt 0.758667 0.062500
vt 0.758667 0.125000
vt 0.758667 0.000000
vt 0.833333 0.000000
vt 0.908000 0.000000
vt 0.908000 0.187500
vt 0.908000 0.250000
vt 0.833333 0.250000
vt 0.758667 0.250000
vt 0.758667 0.437500
vt 0.758667 0.500000
vt 0.758667 0.375000
vt 0.833333 0.375000
vt 0.908000 0.375000
vt 0.758667 0.312500
vt 0.758667 0.375000
vt 0.758667 0.250000
vt 0.833333 0.250000
vt 0.908000 0.250000
vt 0.833333 0.312500
vt 0.908000 0.312500
vt 0.908000 0.375000
vt 0.833333 0.375000
vt 0.833333 0.437500
vt 0.908000 0.437500
vt 0.908000 0.500000
vt 0.833333 0.500000
vt 0.833333 0.187500
vt 0.758667 0.187500
vt 0.758667 0.125000
vt 0.833333 0.125000
vt 0.833333 0.062500
vt 0.908000 0.062500
vt 0.908000 0.125000
vt 0.833333 0.125000
vt 0.166667 0.833333
vt 0.166667 0.908000
vt 0.092000 0.908000
vt 0.092000 0.833333
vt 0.166667 0.758667
vt 0.092000 0.758667
vt 0.241333 0.758667
vt 0.241333 0.833333
vt 0.241333 0.908000
vt 0.758667 0.062500
vt 0.758667 0.125000
vt 0.758667 0.000000
vt 0.833333 0.000000
vt 0.908000 0.000000
vt 0.908000 0.187500
vt 0.908000 0.250000
vt 0.833333 0.250000
vt 0.758667 0.250000
vt 0.758667 0.437500
vt 0.758667 0.500000
vt 0.758667 0.375000
vt 0.833333 0.375000
vt 0.908000 0.375000
vt 0.758667 0.312500
vt 0.758667 0.375000
vt 0.758667 0.250000
vt 0.833333 0.250000
vt 0.908000 0.250000
vn 0.7071 0.7071 0.0000
vn -0.7071 -0.7071 -0.0000
vn -0.0000 -1.0000 -0.0000
vn 0.7071 -0.7071 -0.0000
vn 0.0000 1.0000 0.0000
vn -1.0000 0.0000 -0.0000
vn -0.7071 0.7071 0.0000
vn 0.0000 0.0000 -1.0000
vn 1.0000 0.0000 0.0000
vn 0.0000 0.0000 1.0000
usemtl None
f 41/1/1 39/2/1 40/3/1 42/4/1
f 33/5/2 31/6/2 32/7/2 34/8/2
f 35/9/3 33/10/3 34/11/3 36/12/3
f 37/13/4 35/14/4 36/15/4 38/16/4
f 43/17/5 41/18/5 42/19/5 44/20/5
f 32/21/6 31/22/6 29/23/6 30/24/6
f 30/25/7 29/26/7 43/27/7 44/28/7
f 34/29/8 32/30/8 38/31/8 36/32/8
f 42/33/8 40/34/8 30/35/8 44/36/8
f 32/30/8 30/35/8 40/34/8 38/31/8
f 39/37/9 37/38/9 38/39/9 40/40/9
f 31/41/10 33/42/10 35/43/10 37/44/10
f 29/45/10 31/41/10 37/44/10 39/46/10
f 39/46/10 41/47/10 43/48/10 29/45/10
f 47/49/8 45/50/8 46/51/8 48/52/8
f 51/53/9 47/54/9 48/55/9 52/56/9
f 49/57/10 51/58/10 52/59/10 50/60/10
f 45/61/6 49/62/6 50/60/6 46/63/6
f 45/64/3 47/65/3 51/66/3 49/67/3
f 55/68/8 53/69/8 54/70/8 56/71/8
f 59/72/3 55/73/3 56/74/3 60/75/3
f 57/76/10 59/77/10 60/78/10 58/79/10
f 53/80/5 57/81/5 58/79/5 54/82/5
f 53/83/6 55/84/6 59/85/6 57/86/6
f 63/87/8 61/88/8 62/89/8 64/90/8
f 67/91/3 63/92/3 64/93/3 68/94/3
f 65/95/10 67/96/10 68/97/10 66/98/10
f 61/99/5 65/100/5 66/98/5 62/101/5
f 61/102/6 63/103/6 67/104/6 65/105/6
f 71/106/8 69/107/8 70/108/8 72/109/8
f 75/110/6 71/111/6 72/112/6 76/113/6
f 73/114/10 75/115/10 76/116/10 74/117/10
f 69/118/9 73/119/9 74/117/9 70/120/9
f 69/121/5 71/122/5 75/123/5 73/124/5
f 79/125/8 77/126/8 78/127/8 80/128/8
f 83/129/5 79/130/5 80/131/5 84/132/5
f 81/133/10 83/134/10 84/135/10 82/136/10
f 77/137/3 81/138/3 82/136/3 78/139/3
f 77/140/9 79/141/9 83/142/9 81/143/9
f 87/144/8 85/145/8 86/146/8 88/147/8
f 91/148/1 87/149/1 88/150/1 92/151/1
f 89/152/10 91/153/10 92/154/10 90/155/10
f 85/156/2 89/157/2 90/155/2 86/158/2
f 85/159/4 87/160/4 91/161/4 89/162/4
f 95/163/8 93/164/8 94/165/8 96/166/8
f 99/167/4 95/168/4 96/169/4 100/170/4
f 97/171/10 99/172/10 100/173/10 98/174/10
f 93/175/7 97/176/7 98/174/7 94/177/7
f 93/178/2 95/179/2 99/180/2 97/181/2
f 125/182/8 110/183/8 102/184/8 111/185/8
f 124/186/2 112/187/2 104/188/2 114/189/2
f 123/190/10 115/191/10 108/192/10 117/193/10
f 122/194/1 118/195/1 106/196/1 120/197/1
f 121/198/7 113/199/7 107/200/7 116/201/7
f 119/202/7 121/198/7 116/201/7 105/203/7
f 101/204/7 109/205/7 121/198/7 119/202/7
f 109/205/7 103/206/7 113/199/7 121/198/7
f 110/207/1 122/194/1 120/197/1 102/208/1
f 101/209/1 119/210/1 122/194/1 110/207/1
f 119/210/1 105/211/1 118/195/1 122/194/1
f 118/212/10 123/190/10 117/193/10 106/196/10
f 105/213/10 116/214/10 123/190/10 118/212/10
f 116/214/10 107/215/10 115/191/10 123/190/10
f 115/216/2 124/186/2 114/189/2 108/217/2
f 107/218/2 113/219/2 124/186/2 115/216/2
f 113/219/2 103/220/2 112/187/2 124/186/2
f 112/221/8 125/182/8 111/185/8 104/222/8
f 103/223/8 109/224/8 125/182/8 112/221/8
f 109/224/8 101/225/8 110/183/8 125/182/8
f 150/226/8 135/227/8 127/228/8 136/229/8
f 149/230/7 137/231/7 129/232/7 139/233/7
f 148/234/10 140/235/10 133/236/10 142/237/10
f 147/238/4 143/239/4 131/240/4 145/241/4
f 146/242/1 138/243/1 132/244/1 141/245/1
f 144/246/1 146/242/1 141/245/1 130/247/1
f 126/248/1 134/249/1 146/242/1 144/246/1
f 134/249/1 128/250/1 138/243/1 146/242/1
f 135/251/4 147/238/4 145/241/4 127/252/4
f 126/253/4 144/254/4 147/238/4 135/251/4
f 144/254/4 130/255/4 143/239/4 147/238/4
f 143/256/10 148/234/10 142/237/10 131/240/10
f 130/257/10 141/258/10 148/234/10 143/256/10
f 141/258/10 132/259/10 140/235/10 148/234/10
f 140/260/7 149/230/7 139/233/7 133/261/7
f 132/262/7 138/263/7 149/230/7 140/260/7
f 138/263/7 128/264/7 137/231/7 149/230/7
f 137/265/8 150/226/8 136/229/8 129/266/8
f 128/267/8 134/268/8 150/226/8 137/265/8
f 134/268/8 126/269/8 135/227/8 150/226/8