# Blender v2.78 (sub 0) OBJ File: 'RotaryConverter.blend'
# www.blender.org
mtllib four_electrodes.mtl
o 4PhaseBrush_Cube.027
v -0.500000 -1.000000 1.000000
v -0.500000 1.000000 1.000000
v -1.000000 -1.000000 1.000000
v -1.000000 1.000000 1.000000
v -0.500000 -1.000000 0.000000
v -0.500000 1.000000 0.000000
v -1.000000 -1.000000 0.000000
v -1.000000 1.000000 0.000000
v 2.000000 1.000000 1.000000
v 2.000000 1.188000 1.000000
v -1.000000 1.000000 1.000000
v -1.000000 1.188000 1.000000
v 2.000000 1.000000 -0.000000
v 2.000000 1.188000 -0.000000
v -1.000000 1.000000 0.000000
v -1.000000 1.188000 0.000000
v 0.593750 0.500000 0.262500
v 0.593750 1.000000 0.262500
v 0.406250 0.500000 0.262500
v 0.406250 1.000000 0.262500
v 0.593750 0.500000 0.137500
v 0.593750 1.000000 0.137500
v 0.406250 0.500000 0.137500
v 0.406250 1.000000 0.137500
v 0.593750 0.500000 0.462500
v 0.593750 1.000000 0.462500
v 0.406250 0.500000 0.462500
v 0.406250 1.000000 0.462500
v 0.593750 0.500000 0.337500
v 0.593750 1.000000 0.337500
v 0.406250 0.500000 0.337500
v 0.406250 1.000000 0.337500
v 0.593750 0.500000 0.862500
v 0.593750 1.000000 0.862500
v 0.406250 0.500000 0.862500
v 0.406250 1.000000 0.862500
v 0.593750 0.500000 0.737500
v 0.593750 1.000000 0.737500
v 0.406250 0.500000 0.737500
v 0.406250 1.000000 0.737500
v 0.593750 0.500000 0.662500
v 0.593750 1.000000 0.662500
v 0.406250 0.500000 0.662500
v 0.406250 1.000000 0.662500
v 0.593750 0.500000 0.537500
v 0.593750 1.000000 0.537500
v 0.406250 0.500000 0.537500
v 0.406250 1.000000 0.537500
v 2.000000 -1.000000 1.000000
v 2.000000 1.000000 1.000000
v 1.500000 -1.000000 1.000000
v 1.500000 1.000000 1.000000
v 2.000000 -1.000000 -0.000000
v 2.000000 1.000000 -0.000000
v 1.500000 -1.000000 -0.000000
v 1.500000 1.000000 -0.000000
vn 0.0000 0.0000 1.0000
vn -1.0000 0.0000 0.0000
vn -0.0000 0.0000 -1.0000
vn 1.0000 0.0000 0.0000
vn 0.0000 -1.0000 0.0000
vn 0.0000 1.0000 0.0000
usemtl None
s off
f 1//1 2//1 4//1 3//1
f 3//2 4//2 8//2 7//2
f 7//3 8//3 6//3 5//3
f 5//4 6//4 2//4 1//4
f 3//5 7//5 5//5 1//5
f 8//6 4//6 2//6 6//6
f 9//1 10//1 12//1 11//1
f 11//2 12//2 16//2 15//2
f 15//3 16//3 14//3 13//3
f 13//4 14//4 10//4 9//4
f 11//5 15//5 13//5 9//5
f 16//6 12//6 10//6 14//6
f 17//1 18//1 20//1 19//1
f 19//2 20//2 24//2 23//2
f 23//3 24//3 22//3 21//3
f 21//4 22//4 18//4 17//4
f 19//5 23//5 21//5 17//5
f 25//1 26//1 28//1 27//1
f 27//2 28//2 32//2 31//2
f 31//3 32//3 30//3 29//3
f 29//4 30//4 26//4 25//4
f 27//5 31//5 29//5 25//5
f 33//1 34//1 36//1 35//1
f 35//2 36//2 40//2 39//2
f 39//3 40//3 38//3 37//3
f 37//4 38//4 34//4 33//4
f 35//5 39//5 37//5 33//5
f 41//1 42//1 44//1 43//1
f 43//2 44//2 48//2 47//2
f 47//3 48//3 46//3 45//3
f 45//4 46//4 42//4 41//4
f 43//5 47//5 45//5 41//5
f 49//1 50//1 52//1 51//1
f 51//2 52//2 56//2 55//2
f 55//3 56//3 54//3 53//3
f 53//4 54//4 50//4 49//4
f 51//5 55//5 53//5 49//5
f 56//6 52//6 50//6 54//6
