# Blender v2.78 (sub 0) OBJ File: 'RotaryConverter.blend'
# www.blender.org
mtllib mag_ring.mtl
o MagRing_Cube.048
v 1.500000 0.085786 0.937500
v 1.500000 0.085786 0.062500
v 0.914214 -0.500000 0.937500
v 0.914214 -0.500000 0.062500
v -0.500000 0.085786 0.937500
v -0.500000 0.085786 0.062500
v -0.500000 0.914214 0.937500
v -0.500000 0.914214 0.062500
v 1.500000 0.914214 0.937500
v 1.500000 0.914214 0.062500
v 0.085787 1.500000 0.937500
v 0.085787 1.500000 0.062500
v 0.914214 1.500000 0.937500
v 0.914214 1.500000 0.062500
v 0.085786 -0.500000 0.937500
v 0.085786 -0.500000 0.062500
v 2.000000 -0.412909 0.062500
v 2.000000 -0.706577 0.937500
v 2.000000 -0.412908 0.937500
v 2.000000 -0.142556 0.062500
v 1.999999 -0.142556 0.937500
v 1.999995 -1.000000 0.937500
v 1.999995 -1.000000 0.062500
v -1.000000 -0.142555 0.937500
v -0.999999 -0.142556 0.062500
v -0.142555 2.000000 0.937500
v -0.412908 1.729647 0.937500
v -0.142555 2.000000 0.062500
v -0.999999 1.142555 0.937500
v -0.999999 1.142556 0.062500
v -0.729647 1.412908 0.937500
v -0.729646 1.412909 0.062500
v -1.000000 -1.000000 0.937500
v -0.999995 -1.000000 0.062500
v 2.000000 1.142555 0.062500
v 1.999999 1.142556 0.937500
v 1.142555 2.000000 0.937500
v 1.142555 2.000000 0.062500
vn 0.0000 -0.0000 1.0000
vn 0.7071 0.7071 -0.0000
vn -0.7071 -0.7071 0.0000
vn -0.7071 0.7071 0.0000
vn 0.0000 -1.0000 0.0000
vn 0.0000 -0.0000 -1.0000
vn 0.7071 -0.7071 -0.0000
vn 1.0000 0.0000 0.0000
vn -1.0000 0.0000 0.0000
vn 0.0000 1.0000 0.0000
usemtl Material.002
s off
f 3//1 15//1 33//1
f 5//2 15//2 16//2 6//2
f 9//3 13//3 14//3 10//3
f 3//4 1//4 2//4 4//4
f 13//5 11//5 12//5 14//5
f 9//1 1//1 21//1 36//1
f 31//1 29//1 7//1
f 33//1 22//1 3//1
f 18//1 19//1 3//1
f 19//1 1//1 3//1
f 14//6 12//6 28//6 38//6
f 22//1 18//1 3//1
f 11//7 7//7 8//7 12//7
f 7//8 5//8 6//8 8//8
f 1//9 9//9 10//9 2//9
f 38//10 28//10 26//10 37//10
f 24//1 33//1 15//1 5//1
f 30//6 32//6 8//6
f 17//6 23//6 4//6
f 4//6 2//6 17//6
f 4//6 23//6 34//6
f 16//6 4//6 34//6
f 20//6 17//6 2//6
f 29//1 24//1 5//1 7//1
f 25//6 6//6 16//6 34//6
f 37//1 13//1 9//1 36//1
f 26//1 11//1 13//1 37//1
f 23//8 17//8 19//8 18//8
f 21//8 19//8 17//8 20//8
f 30//4 29//4 31//4 32//4
f 1//1 19//1 21//1
f 25//6 30//6 8//6 6//6
f 35//6 20//6 2//6 10//6
f 12//6 8//6 32//6 28//6
f 27//1 11//1 26//1
f 10//6 14//6 38//6 35//6
f 31//1 7//1 11//1 27//1
f 26//4 28//4 27//4
f 36//8 21//8 20//8 35//8
f 27//4 28//4 32//4 31//4
f 22//8 23//8 18//8
f 22//5 33//5 34//5 23//5
f 29//9 30//9 34//9 33//9
f 36//2 35//2 38//2 37//2
f 15//10 3//10 4//10 16//10
