# Blender v2.78 (sub 0) OBJ File: 'RotaryConverter.blend'
# www.blender.org
mtllib mag_ring.mtl
o MagRing_Cube.048
v 1.500000 0.085786 0.937500
v 1.500000 0.085786 0.062500
v 0.914214 -0.500001 0.937500
v 0.914214 -0.500000 0.062500
v -0.500000 0.085786 0.937500
v -0.500000 0.085786 0.062500
v -0.500000 0.914213 0.937500
v -0.500000 0.914214 0.062500
v 1.500000 0.914213 0.937500
v 1.500000 0.914214 0.062500
v 0.085787 1.499999 0.937500
v 0.085787 1.500000 0.062500
v 0.914214 1.499999 0.937500
v 0.914214 1.500000 0.062500
v 0.085786 -0.500001 0.937500
v 0.085786 -0.500000 0.062500
v 2.000000 -0.500001 0.937500
v 1.999999 0.085789 0.937500
v 1.999995 -1.000001 0.937500
v 1.999995 -1.000000 0.062500
v -0.142555 1.999999 0.937500
v -0.142555 2.000000 0.062500
v -0.999999 1.142555 0.937500
v -0.999999 1.142556 0.062500
v -1.000000 -1.000001 0.937500
v -0.999995 -1.000000 0.062500
v 2.000000 1.142555 0.062500
v 1.999999 1.142556 0.937500
v 1.142555 1.999999 0.937500
v 1.142555 2.000000 0.062500
v -1.000000 0.085789 0.937500
v -1.000000 -0.500001 0.937500
v -0.500000 0.085786 0.062500
v 0.085786 -0.500001 0.062500
v 1.500000 0.085786 0.062500
v 1.500000 0.914213 0.062500
v -0.500000 0.914213 0.062500
v 0.914213 1.500000 0.062500
v 0.085786 1.500000 0.062500
v 0.914213 -0.500001 0.062500
v -1.000000 -0.500000 0.062500
v -1.000000 0.085790 0.062500
v -0.999996 -1.000000 0.062500
v 1.142554 2.000000 0.062500
v 1.999999 1.142555 0.062500
v 2.000000 -1.000000 0.062500
v -0.999999 1.142556 0.062500
v -0.142556 2.000000 0.062500
v 1.999999 0.085790 0.062500
v 2.000000 -0.500000 0.062500
vt 0.3542 0.6042
vt 0.3542 0.3333
vt 0.6458 0.3333
vt 0.6458 0.6042
vt 0.6458 0.3333
vt 0.6458 0.6042
vt 0.3542 0.6042
vt 0.3542 0.3333
vt 0.3542 0.6042
vt 0.3542 0.3333
vt 0.6458 0.3333
vt 0.6458 0.6042
vt 0.6458 0.3333
vt 0.6458 0.6042
vt 0.3542 0.6042
vt 0.3542 0.3333
vt 0.5208 0.3333
vt 0.3542 0.4167
vt 0.6042 0.6667
vt 0.6875 0.5000
vt 0.3542 0.6042
vt 0.3542 0.3333
vt 0.6458 0.3333
vt 0.6458 0.6042
vt 0.3542 0.6042
vt 0.3542 0.3333
vt 0.6458 0.3333
vt 0.6458 0.6042
vt 0.6458 0.3333
vt 0.6458 0.6042
vt 0.3542 0.6042
vt 0.3542 0.3333
vt 0.6458 0.2708
vt 0.6458 0.7292
vt 0.3750 0.7292
vt 0.3750 0.2708
vt 0.4792 0.5000
vt 0.4792 0.7708
vt 0.6667 0.7708
vt 0.6667 0.4167
vt 0.6667 0.3333
vt 0.4792 0.3333
vt 0.4792 0.4583
vt 0.6667 0.7083
vt 0.5833 1.0000
vt 0.4167 1.0000
vt 0.4167 0.0000
vt 0.5833 0.0000
vt 0.0208 1.0000
vt 0.0208 0.5625
vt 0.3333 0.5625
vt 0.3333 1.0000
vt 0.6458 0.0000
vt 0.6458 1.0000
vt 0.3750 1.0000
vt 0.3750 0.0000
vt 0.0208 0.0000
vt 0.3333 0.0000
vt 0.3333 0.7083
vt 0.0208 0.7083
vt 0.0208 0.5625
vt 0.3333 0.5625
vt 0.3333 1.0000
vt 0.0208 1.0000
vt 0.3542 0.6042
vt 0.3542 0.3333
vt 0.6458 0.3333
vt 0.6458 0.6042
vt 0.5625 0.3542
vt 0.5625 0.6458
vt 0.4167 0.7083
vt 0.4167 0.2917
vt 0.6875 0.5208
vt 0.6042 0.6667
vt 0.3542 0.3958
vt 0.5208 0.3333
vt 0.4792 0.7708
vt 0.4792 0.5000
vt 0.6667 0.4167
vt 0.6667 0.7708
vt 0.6667 0.7083
vt 0.4792 0.4583
vt 0.4792 0.3333
vt 0.6667 0.3333
vt 0.0208 0.0000
vt 0.3333 0.0000
vt 0.3333 0.7083
vt 0.0208 0.7083
vt 0.5208 0.3333
vt 0.3542 0.4167
vt 0.6042 0.6667
vt 0.6875 0.5000
vt 0.4792 0.5000
vt 0.4792 0.7708
vt 0.6667 0.7708
vt 0.6667 0.4167
vt 0.6667 0.3333
vt 0.4792 0.3333
vt 0.4792 0.4583
vt 0.6667 0.7083
vt 0.5833 1.0000
vt 0.4167 1.0000
vt 0.4167 0.0000
vt 0.5833 0.0000
vt 0.5625 0.3542
vt 0.5625 0.6458
vt 0.4167 0.7083
vt 0.4167 0.2917
vt 0.6875 0.5208
vt 0.6042 0.6667
vt 0.3542 0.3958
vt 0.5208 0.3333
vt 0.4792 0.7708
vt 0.4792 0.5000
vt 0.6667 0.4167
vt 0.6667 0.7708
vt 0.6667 0.7083
vt 0.4792 0.4583
vt 0.4792 0.3333
vt 0.6667 0.3333
vn 0.7071 0.7071 0.0000
vn -0.7071 -0.7071 -0.0000
vn -0.7071 0.7071 0.0000
vn 0.0000 -1.0000 -0.0000
vn -0.0000 -0.0000 1.0000
vn 0.7071 -0.7071 -0.0000
vn 1.0000 0.0000 0.0000
vn -1.0000 0.0000 -0.0000
vn -0.0000 1.0000 0.0000
vn 0.0000 -0.0000 -1.0000
usemtl Material.002
s off
f 5/1/1 15/2/1 16/3/1 6/4/1
f 9/5/2 13/6/2 14/7/2 10/8/2
f 3/9/3 1/10/3 2/11/3 4/12/3
f 13/13/4 11/14/4 12/15/4 14/16/4
f 9/17/5 28/18/5 29/19/5 13/20/5
f 11/21/6 7/22/6 8/23/6 12/24/6
f 7/25/7 5/26/7 6/27/7 8/28/7
f 1/29/8 9/30/8 10/31/8 2/32/8
f 30/33/9 22/34/9 21/35/9 29/36/9
f 9/37/5 1/38/5 18/39/5 28/40/5
f 17/41/5 18/42/5 1/43/5 3/44/5
f 19/45/5 17/46/5 32/47/5 25/48/5
f 22/49/3 24/50/3 23/51/3 21/52/3
f 19/53/4 25/54/4 26/55/4 20/56/4
f 26/57/8 25/58/8 23/59/8 24/60/8
f 28/61/1 27/62/1 30/63/1 29/64/1
f 15/65/9 3/66/9 4/67/9 16/68/9
f 11/69/5 13/70/5 29/71/5 21/72/5
f 11/73/5 21/74/5 23/75/5 7/76/5
f 5/77/5 7/78/5 23/79/5 31/80/5
f 15/81/5 5/82/5 31/83/5 32/84/5
f 19/85/7 20/86/7 27/87/7 28/88/7
f 37/89/10 47/90/10 48/91/10 39/92/10
f 37/93/10 33/94/10 42/95/10 47/96/10
f 41/97/10 42/98/10 33/99/10 34/100/10
f 43/101/10 41/102/10 50/103/10 46/104/10
f 38/105/10 39/106/10 48/107/10 44/108/10
f 38/109/10 44/110/10 45/111/10 36/112/10
f 35/113/10 36/114/10 45/115/10 49/116/10
f 40/117/10 35/118/10 49/119/10 50/120/10
