# Blender v2.79 (sub 0) OBJ File: 'RotaryConverter.blend'
# www.blender.org
mtllib shaft_comm4.mtl
o ShaftComm4_Cylinder.002
v 0.375000 0.551777 1.000000
v 0.375000 0.551777 0.000000
v 0.375000 0.448223 1.000000
v 0.375000 0.448223 0.000000
v 0.448223 0.375000 1.000000
v 0.448223 0.375000 0.000000
v 0.551777 0.375000 1.000000
v 0.551777 0.375000 0.000000
v 0.625000 0.448223 1.000000
v 0.625000 0.448223 0.000000
v 0.625000 0.551777 1.000000
v 0.625000 0.551777 0.000000
v 0.551777 0.625000 1.000000
v 0.551777 0.625000 0.000000
v 0.448223 0.625000 1.000000
v 0.448223 0.625000 0.000000
vt 0.875000 1.000000
vt 0.875000 -0.000000
vt 0.937500 0.000000
vt 0.937500 1.000000
vt 0.875000 0.000000
vt 0.875000 1.000000
vt 0.812500 1.000000
vt 0.812500 0.000000
vt 0.812500 1.000000
vt 0.812500 -0.000000
vt 0.875000 0.000000
vt 0.875000 1.000000
vt 0.937500 0.000000
vt 0.937500 1.000000
vt 0.875000 1.000000
vt 0.875000 0.000000
vt 0.750000 1.000000
vt 0.750000 0.000000
vt 0.812500 0.000000
vt 0.812500 1.000000
vt 1.000000 0.000000
vt 1.000000 1.000000
vt 0.937500 1.000000
vt 0.937500 0.000000
vt 0.937500 1.000000
vt 0.937500 0.000000
vt 1.000000 0.000000
vt 1.000000 1.000000
vt 0.812500 0.000000
vt 0.812500 1.000000
vt 0.750000 1.000000
vt 0.750000 0.000000
vn -1.0000 0.0000 0.0000
vn -0.7071 -0.7071 0.0000
vn 0.0000 -1.0000 0.0000
vn 0.7071 -0.7071 0.0000
vn 1.0000 0.0000 -0.0000
vn 0.7071 0.7071 -0.0000
vn 0.0000 1.0000 0.0000
vn -0.7071 0.7071 0.0000
usemtl None
f 1/1/1 2/2/1 4/3/1 3/4/1
f 3/5/2 4/6/2 6/7/2 5/8/2
f 5/9/3 6/10/3 8/11/3 7/12/3
f 7/13/4 8/14/4 10/15/4 9/16/4
f 9/17/5 10/18/5 12/19/5 11/20/5
f 11/21/6 12/22/6 14/23/6 13/24/6
f 13/25/7 14/26/7 16/27/7 15/28/7
f 15/29/8 16/30/8 2/31/8 1/32/8
