# Blender v2.79 (sub 0) OBJ File: 'RotaryConverter.blend'
# www.blender.org
mtllib shaft.mtl
o Shaft_Cylinder.004
v 0.375000 0.551777 1.000000
v 0.375000 0.551777 0.000000
v 0.375000 0.448223 1.000000
v 0.375000 0.448223 0.000000
v 0.448223 0.375000 1.000000
v 0.448223 0.375000 0.000000
v 0.551777 0.375000 1.000000
v 0.551777 0.375000 0.000000
v 0.625000 0.448223 1.000000
v 0.625000 0.448223 0.000000
v 0.625000 0.551777 1.000000
v 0.625000 0.551777 0.000000
v 0.551777 0.625000 1.000000
v 0.551777 0.625000 0.000000
v 0.448223 0.625000 1.000000
v 0.448223 0.625000 0.000000
vt 0.125000 1.000000
vt 0.125000 0.000000
vt 0.187500 0.000000
vt 0.187500 1.000000
vt 0.250000 0.000000
vt 0.250000 1.000000
vt -0.000000 1.000000
vt -0.000000 -0.000000
vt 0.062500 -0.000000
vt 0.062500 1.000000
vt 0.125000 -0.000000
vt 0.125000 1.000000
vt 0.187500 0.000000
vt 0.187500 1.000000
vt 0.125000 1.000000
vt 0.125000 0.000000
vt 0.187500 1.000000
vt 0.187500 0.000000
vt 0.250000 0.000000
vt 0.250000 1.000000
vt 0.000000 1.000000
vt 0.000000 -0.000000
vt 0.062500 -0.000000
vt 0.062500 1.000000
vn -1.0000 0.0000 0.0000
vn -0.7071 -0.7071 0.0000
vn 0.0000 -1.0000 0.0000
vn 0.7071 -0.7071 0.0000
vn 1.0000 0.0000 -0.0000
vn 0.7071 0.7071 -0.0000
vn 0.0000 1.0000 0.0000
vn -0.7071 0.7071 0.0000
usemtl None
f 1/1/1 2/2/1 4/3/1 3/4/1
f 3/4/2 4/3/2 6/5/2 5/6/2
f 5/7/3 6/8/3 8/9/3 7/10/3
f 7/10/4 8/9/4 10/11/4 9/12/4
f 9/13/5 10/14/5 12/15/5 11/16/5
f 11/17/6 12/18/6 14/19/6 13/20/6
f 13/21/7 14/22/7 16/23/7 15/24/7
f 15/24/8 16/23/8 2/2/8 1/1/8
