# Blender v2.79 (sub 0) OBJ File: 'RotaryConverter.blend'
# www.blender.org
mtllib speedometer.mtl
o Cube.001_Cube.002
v 0.000000 0.312500 0.687500
v 0.000000 0.687500 0.687500
v 0.000000 0.312500 0.312500
v 0.000000 0.687500 0.312500
v 1.000000 0.312500 0.687500
v 1.000000 0.687500 0.687500
v 1.000000 0.312500 0.312500
v 1.000000 0.687500 0.312500
v 0.187500 0.187500 0.750000
v 0.187500 0.812500 0.750000
v 0.187500 0.187500 0.250000
v 0.187500 0.812500 0.250000
v 0.812500 0.187500 0.750000
v 0.812500 0.812500 0.750000
v 0.812500 0.187500 0.250000
v 0.812500 0.812500 0.250000
vt 0.187500 1.000000
vt -0.000000 1.000000
vt -0.000000 0.812500
vt 0.187500 0.812500
vt 0.000000 0.812500
vt 0.000000 0.625000
vt 0.500000 0.625000
vt 0.500000 0.812500
vt 0.187500 1.000000
vt 0.000000 1.000000
vt 0.000000 0.812500
vt 0.187500 0.812500
vt 0.000000 0.812500
vt 0.000000 0.625000
vt 0.500000 0.625000
vt 0.500000 0.812500
vt 0.500000 0.812500
vt -0.000000 0.812500
vt -0.000000 0.625000
vt 0.500000 0.625000
vt 0.000000 0.625000
vt 0.500000 0.625000
vt 0.500000 0.812500
vt 0.406250 0.687500
vt 0.093750 0.687500
vt 0.093750 0.500000
vt 0.406250 0.500000
vt 0.093750 0.812500
vt 0.406250 0.500000
vt 0.406250 0.812500
vt 0.093750 0.812500
vt 0.093750 0.562500
vt 0.406250 0.562500
vt 0.406250 0.500000
vt 0.406250 0.812500
vt 0.093750 0.812500
vt 0.093750 0.500000
vt 0.093750 0.562500
vt 0.406250 0.562500
vt 0.406250 0.812500
vt 0.093750 0.812500
vt 0.343750 0.156250
vt 0.343750 0.468750
vt 0.093750 0.468750
vt 0.093750 0.156250
vn -1.0000 0.0000 0.0000
vn 0.0000 0.0000 -1.0000
vn 1.0000 0.0000 0.0000
vn 0.0000 0.0000 1.0000
vn 0.0000 -1.0000 0.0000
vn 0.0000 1.0000 0.0000
usemtl None
s off
f 1/1/1 2/2/1 4/3/1 3/4/1
f 3/5/2 4/6/2 8/7/2 7/8/2
f 7/9/3 8/10/3 6/11/3 5/12/3
f 5/13/4 6/14/4 2/15/4 1/16/4
f 3/17/5 7/18/5 5/19/5 1/20/5
f 8/21/6 4/22/6 2/23/6 6/11/6
f 9/24/1 10/25/1 12/26/1 11/27/1
f 11/28/2 12/26/2 16/29/2 15/30/2
f 15/30/3 16/31/3 14/32/3 13/33/3
f 13/34/4 14/35/4 10/36/4 9/37/4
f 11/38/5 15/39/5 13/40/5 9/41/5
f 16/42/6 12/43/6 10/44/6 14/45/6
