mtllib jacobs_huge.mtl
usemtl jacobs_huge
o jacobs_huge
v 0.969403 2.806373 0.593750
v 1.007644 2.989932 0.593750
v 0.969403 2.806373 0.406250
v 1.007644 2.989932 0.406250
v 1.152961 2.768132 0.593750
v 1.191203 2.951691 0.593750
v 1.152961 2.768132 0.406250
v 1.191203 2.951691 0.406250
v 0.624996 1.000000 0.562500
v 0.999996 2.800000 0.562500
v 0.624996 1.000000 0.437500
v 0.999996 2.800000 0.437500
v 0.747368 0.974506 0.562500
v 1.122368 2.774506 0.562500
v 0.747368 0.974506 0.437500
v 1.122368 2.774506 0.437500
v -0.000004 0.000000 1.000000
v -0.000004 1.000000 1.000000
v -0.000004 0.000000 0.000000
v -0.000004 1.000000 0.000000
v 0.999996 0.000000 1.000000
v 0.999996 1.000000 1.000000
v 0.999996 0.000000 0.000000
v 0.999996 1.000000 0.000000
v 0.374996 1.000000 0.437500
v -0.000004 2.800000 0.437500
v 0.374996 1.000000 0.562500
v -0.000004 2.800000 0.562500
v 0.252623 0.974506 0.437500
v -0.122377 2.774506 0.437500
v 0.252623 0.974506 0.562500
v -0.122377 2.774506 0.562500
v 0.030589 2.806373 0.406250
v -0.007653 2.989932 0.406250
v 0.030589 2.806373 0.593750
v -0.007653 2.989932 0.593750
v -0.152970 2.768132 0.406250
v -0.191211 2.951691 0.406250
v -0.152970 2.768132 0.593750
v -0.191211 2.951691 0.593750
vt 0.2964 0.5938
vt 0.2505 0.5938
vt 0.2505 0.5469
vt 0.2964 0.5469
vt 0.2500 0.5469
vt 0.2500 0.5000
vt 0.2969 0.5000
vt 0.2969 0.5469
vt 0.3433 0.6406
vt 0.2974 0.6406
vt 0.2974 0.5938
vt 0.3433 0.5938
vt 0.3438 0.5000
vt 0.3438 0.5469
vt 0.2969 0.5469
vt 0.2969 0.5000
vt 0.3911 0.5469
vt 0.4370 0.5469
vt 0.4370 0.5938
vt 0.3911 0.5938
vt 0.4839 0.5938
vt 0.4380 0.5938
vt 0.4380 0.5469
vt 0.4839 0.5469
vt 0.6562 0.2500
vt 0.6562 0.7000
vt 0.6250 0.7000
vt 0.6250 0.2500
vt 0.5625 0.7097
vt 0.5625 0.2500
vt 0.5937 0.2500
vt 0.5937 0.7097
vt 0.6875 0.7000
vt 0.6875 0.2500
vt 0.7188 0.2500
vt 0.7188 0.7000
vt 0.5938 0.7097
vt 0.5937 0.2500
vt 0.6250 0.2500
vt 0.6250 0.7097
vt 0.4378 0.5938
vt 0.4684 0.5938
vt 0.4684 0.6250
vt 0.4378 0.6250
vt 0.4372 0.6250
vt 0.4066 0.6250
vt 0.4066 0.5938
vt 0.4372 0.5938
vt 0.5000 0.0000
vt 0.5000 0.2500
vt 0.2500 0.2500
vt 0.2500 0.0000
vt 0.0000 0.7500
vt 0.0000 0.5000
vt 0.2500 0.5000
vt 0.2500 0.7500
vt 0.2500 0.5000
vt 0.0000 0.5000
vt 0.0000 0.2500
vt 0.2500 0.2500
vt 0.5000 0.2500
vt 0.5000 0.5000
vt 0.2500 0.5000
vt 0.2500 0.2500
vt 0.5000 0.2500
vt 0.5000 0.0000
vt 0.7500 0.0000
vt 0.7500 0.2500
vt -0.0000 0.0000
vt 0.2500 0.0000
vt 0.2500 0.2500
vt 0.7188 0.7000
vt 0.7188 0.2500
vt 0.7500 0.2500
vt 0.7500 0.7000
vt 0.5625 0.2500
vt 0.5625 0.7097
vt 0.5312 0.7097
vt 0.5312 0.2500
vt 0.6875 0.2500
vt 0.6875 0.7000
vt 0.6562 0.7000
vt 0.6562 0.2500
vt 0.5000 0.7097
vt 0.5000 0.2500
vt 0.5312 0.2500
vt 0.5312 0.7097
vt 0.3441 0.5938
vt 0.3747 0.5938
vt 0.3747 0.6250
vt 0.3441 0.6250
vt 0.3753 0.5938
vt 0.4059 0.5938
vt 0.4059 0.6250
vt 0.3753 0.6250
vt 0.4834 0.5469
vt 0.4375 0.5469
vt 0.4375 0.5000
vt 0.4834 0.5000
vt 0.3906 0.5000
vt 0.3906 0.5469
vt 0.3438 0.5469
vt 0.3438 0.5000
vt 0.2964 0.6406
vt 0.2505 0.6406
vt 0.2505 0.5938
vt 0.2964 0.5938
vt 0.4375 0.5469
vt 0.3906 0.5469
vt 0.3906 0.5000
vt 0.4375 0.5000
vt 0.3901 0.5938
vt 0.3442 0.5938
vt 0.3442 0.5469
vt 0.3901 0.5469
vt 0.2974 0.5469
vt 0.3433 0.5469
vt 0.3433 0.5938
vt 0.2974 0.5938
vn -0.9790 0.2040 0.0000
vn 0.0000 0.0000 -1.0000
vn 0.9790 -0.2040 0.0000
vn 0.0000 0.0000 1.0000
vn -0.2040 -0.9790 0.0000
vn 0.2040 0.9790 0.0000
vn -1.0000 0.0000 0.0000
vn 1.0000 0.0000 0.0000
vn 0.0000 -1.0000 0.0000
vn 0.0000 1.0000 0.0000
vn 0.9790 0.2040 0.0000
vn -0.9790 -0.2040 0.0000
vn 0.2040 -0.9790 0.0000
vn -0.2040 0.9790 0.0000
f 1/1/1 2/2/1 4/3/1 3/4/1
f 3/5/2 4/6/2 8/7/2 7/8/2
f 7/9/3 8/10/3 6/11/3 5/12/3
f 5/13/4 6/14/4 2/15/4 1/16/4
f 3/17/5 7/18/5 5/19/5 1/20/5
f 8/21/6 4/22/6 2/23/6 6/24/6
f 9/25/1 10/26/1 12/27/1 11/28/1
f 11/29/2 12/30/2 16/31/2 15/32/2
f 15/33/3 16/34/3 14/35/3 13/36/3
f 13/37/4 14/38/4 10/39/4 9/40/4
f 11/41/5 15/42/5 13/43/5 9/44/5
f 16/45/6 12/46/6 10/47/6 14/48/6
f 17/49/7 18/50/7 20/51/7 19/52/7
f 19/53/2 20/54/2 24/55/2 23/56/2
f 23/57/8 24/58/8 22/59/8 21/60/8
f 21/61/4 22/62/4 18/63/4 17/64/4
f 19/65/9 23/66/9 21/67/9 17/68/9
f 24/69/10 20/70/10 18/71/10 22/59/10
f 25/72/11 26/73/11 28/74/11 27/75/11
f 27/76/4 28/77/4 32/78/4 31/79/4
f 31/80/12 32/81/12 30/82/12 29/83/12
f 29/84/2 30/85/2 26/86/2 25/87/2
f 27/88/13 31/89/13 29/90/13 25/91/13
f 32/92/14 28/93/14 26/94/14 30/95/14
f 33/96/11 34/97/11 36/98/11 35/99/11
f 35/100/4 36/101/4 40/102/4 39/103/4
f 39/104/12 40/105/12 38/106/12 37/107/12
f 37/108/2 38/109/2 34/110/2 33/111/2
f 35/112/13 39/113/13 37/114/13 33/115/13
f 40/116/14 36/117/14 34/118/14 38/119/14
