mtllib jacobs_small.mtl
usemtl jacobs_small
o jacobs_small
v 0.734751 1.425304 0.531250
v 0.748471 1.486280 0.531250
v 0.734751 1.425304 0.468750
v 0.748471 1.486280 0.468750
v 0.795727 1.411585 0.531250
v 0.809447 1.472560 0.531250
v 0.795727 1.411585 0.468750
v 0.809447 1.472560 0.468750
v 0.999999 -0.000000 0.000000
v 0.999999 -0.000000 1.000000
v -0.000000 -0.000001 1.000000
v -0.000000 -0.000000 0.000000
v 0.999999 1.000000 0.000000
v 0.999999 1.000000 1.000000
v -0.000000 1.000000 0.999999
v -0.000000 1.000000 0.000000
v 0.424996 0.999999 0.468750
v 0.312496 1.499999 0.468750
v 0.424996 0.999999 0.531250
v 0.312496 1.499999 0.531250
v 0.364020 0.986280 0.468750
v 0.251520 1.486280 0.468750
v 0.364020 0.986280 0.531250
v 0.251520 1.486280 0.531250
v 0.574995 0.999999 0.531250
v 0.687495 1.500000 0.531250
v 0.574995 0.999999 0.468750
v 0.687495 1.500000 0.468750
v 0.635971 0.986280 0.531250
v 0.748471 1.486280 0.531250
v 0.635971 0.986280 0.468750
v 0.748471 1.486280 0.468750
v 0.265240 1.425304 0.468750
v 0.251520 1.486280 0.468750
v 0.265240 1.425304 0.531250
v 0.251520 1.486280 0.531250
v 0.204264 1.411585 0.468750
v 0.190544 1.472560 0.468750
v 0.204264 1.411585 0.531250
v 0.190544 1.472560 0.531250
vt 0.4227 0.3906
vt 0.4074 0.3906
vt 0.4074 0.3750
vt 0.4227 0.3750
vt 0.2813 0.5156
vt 0.2813 0.5000
vt 0.2969 0.5000
vt 0.2969 0.5156
vt 0.4842 0.5156
vt 0.4689 0.5156
vt 0.4689 0.5000
vt 0.4842 0.5000
vt 0.2656 0.5000
vt 0.2656 0.5156
vt 0.2500 0.5156
vt 0.2500 0.5000
vt 0.3436 0.5156
vt 0.3283 0.5156
vt 0.3283 0.5000
vt 0.3436 0.5000
vt 0.3127 0.5000
vt 0.3279 0.5000
vt 0.3279 0.5156
vt 0.3127 0.5156
vt 0.5000 0.0000
vt 0.7500 0.0000
vt 0.7500 0.2500
vt 0.5000 0.2500
vt 0.0000 -0.0000
vt 0.2500 -0.0000
vt 0.2500 0.2500
vt 0.0000 0.2500
vt 0.5000 0.2500
vt 0.2500 0.2500
vt 0.2500 0.0000
vt 0.5000 0.2500
vt 0.5000 0.5000
vt 0.2500 0.5000
vt 0.2500 0.2500
vt 0.5000 0.0000
vt 0.5000 0.2500
vt 0.2500 0.2500
vt 0.2500 0.0000
vt 0.0000 0.7500
vt 0.0000 0.5000
vt 0.2500 0.5000
vt 0.2500 0.7500
vt 0.5469 0.2500
vt 0.5469 0.3750
vt 0.5312 0.3750
vt 0.5312 0.2500
vt 0.5625 0.3781
vt 0.5625 0.2500
vt 0.5782 0.2500
vt 0.5782 0.3781
vt 0.6250 0.2500
vt 0.6250 0.3750
vt 0.6094 0.3750
vt 0.6094 0.2500
vt 0.5312 0.2500
vt 0.5312 0.3781
vt 0.5156 0.3781
vt 0.5156 0.2500
vt 0.4533 0.5000
vt 0.4686 0.5000
vt 0.4686 0.5156
vt 0.4533 0.5156
vt 0.4217 0.5156
vt 0.4064 0.5156
vt 0.4064 0.5000
vt 0.4217 0.5000
vt 0.5625 0.2500
vt 0.5625 0.3750
vt 0.5469 0.3750
vt 0.5469 0.2500
vt 0.5782 0.3781
vt 0.5782 0.2500
vt 0.5938 0.2500
vt 0.5938 0.3781
vt 0.6094 0.2500
vt 0.6094 0.3750
vt 0.5938 0.3750
vt 0.5938 0.2500
vt 0.5156 0.2500
vt 0.5156 0.3781
vt 0.5000 0.3781
vt 0.5000 0.2500
vt 0.3596 0.5000
vt 0.3748 0.5000
vt 0.3748 0.5156
vt 0.3596 0.5156
vt 0.4846 0.5000
vt 0.4998 0.5000
vt 0.4998 0.5156
vt 0.4846 0.5156
vt 0.3904 0.5156
vt 0.3752 0.5156
vt 0.3752 0.5000
vt 0.3904 0.5000
vt 0.3125 0.5156
vt 0.2969 0.5156
vt 0.2969 0.5000
vt 0.3125 0.5000
vt 0.4061 0.5156
vt 0.3908 0.5156
vt 0.3908 0.5000
vt 0.4061 0.5000
vt 0.2813 0.5000
vt 0.2813 0.5156
vt 0.2656 0.5156
vt 0.2656 0.5000
vt 0.4221 0.5000
vt 0.4373 0.5000
vt 0.4373 0.5156
vt 0.4221 0.5156
vt 0.4377 0.5000
vt 0.4529 0.5000
vt 0.4529 0.5156
vt 0.4377 0.5156
vn -0.9756 0.2195 0.0000
vn 0.0000 0.0000 -1.0000
vn 0.9756 -0.2195 0.0000
vn -0.0000 0.0000 1.0000
vn -0.2195 -0.9756 0.0000
vn 0.2195 0.9756 0.0000
vn 0.0000 -1.0000 -0.0000
vn -0.0000 1.0000 0.0000
vn 1.0000 -0.0000 0.0000
vn -1.0000 -0.0000 -0.0000
vn 0.9756 0.2195 0.0000
vn -0.9756 -0.2195 0.0000
vn 0.2195 -0.9756 0.0000
vn -0.2195 0.9756 0.0000
f 1/1/1 2/2/1 4/3/1 3/4/1
f 3/5/2 4/6/2 8/7/2 7/8/2
f 7/9/3 8/10/3 6/11/3 5/12/3
f 5/13/4 6/14/4 2/15/4 1/16/4
f 3/17/5 7/18/5 5/19/5 1/20/5
f 8/21/6 4/22/6 2/23/6 6/24/6
f 9/25/7 10/26/7 11/27/7 12/28/7
f 13/29/8 16/30/8 15/31/8 14/32/8
f 9/25/9 13/33/9 14/34/9 10/35/9
f 10/36/4 14/37/4 15/38/4 11/39/4
f 11/40/10 15/41/10 16/42/10 12/43/10
f 13/44/2 9/45/2 12/46/2 16/47/2
f 17/48/11 18/49/11 20/50/11 19/51/11
f 19/52/4 20/53/4 24/54/4 23/55/4
f 23/56/12 24/57/12 22/58/12 21/59/12
f 21/60/2 22/61/2 18/62/2 17/63/2
f 19/64/13 23/65/13 21/66/13 17/67/13
f 24/68/14 20/69/14 18/70/14 22/71/14
f 25/72/1 26/73/1 28/74/1 27/75/1
f 27/76/2 28/77/2 32/78/2 31/79/2
f 31/80/3 32/81/3 30/82/3 29/83/3
f 29/84/4 30/85/4 26/86/4 25/87/4
f 27/88/5 31/89/5 29/90/5 25/91/5
f 32/92/6 28/93/6 26/94/6 30/95/6
f 33/96/11 34/97/11 36/98/11 35/99/11
f 35/100/4 36/101/4 40/102/4 39/103/4
f 39/104/12 40/105/12 38/106/12 37/107/12
f 37/108/2 38/109/2 34/110/2 33/111/2
f 35/112/13 39/113/13 37/114/13 33/115/13
f 40/116/14 36/117/14 34/118/14 38/119/14
