# Blender v2.78 (sub 0) OBJ File: ''
# www.blender.org
o Cube_Cube.003
v -0.218750 2.906250 0.593750
v -0.218750 3.093750 0.593750
v -0.218750 2.906250 0.406250
v -0.218750 3.093750 0.406250
v -0.031250 2.906250 0.593750
v -0.031250 3.093750 0.593750
v -0.031250 2.906250 0.406250
v -0.031250 3.093750 0.406250
v 0.000000 0.000000 1.000000
v 0.000000 1.000000 1.000000
v 0.000000 0.000000 0.000000
v 0.000000 1.000000 0.000000
v 1.000000 0.000000 1.000000
v 1.000000 1.000000 1.000000
v 1.000000 0.000000 0.000000
v 1.000000 1.000000 0.000000
v 0.587500 0.984049 0.562500
v 1.037500 2.984049 0.562500
v 0.587500 0.984049 0.437500
v 1.037500 2.984049 0.437500
v 0.712500 0.984049 0.562500
v 1.162500 2.984049 0.562500
v 0.712500 0.984049 0.437500
v 1.162500 2.984049 0.437500
v 0.412500 0.984049 0.437500
v -0.037500 2.984049 0.437500
v 0.412500 0.984049 0.562500
v -0.037500 2.984049 0.562500
v 0.287500 0.984049 0.437500
v -0.162500 2.984049 0.437500
v 0.287500 0.984049 0.562500
v -0.162500 2.984049 0.562500
v 1.031250 2.906250 0.593750
v 1.031250 3.093750 0.593750
v 1.031250 2.906250 0.406250
v 1.031250 3.093750 0.406250
v 1.218750 2.906250 0.593750
v 1.218750 3.093750 0.593750
v 1.218750 2.906250 0.406250
v 1.218750 3.093750 0.406250
vn -1.0000 0.0000 0.0000
vn 0.0000 0.0000 -1.0000
vn 1.0000 0.0000 0.0000
vn 0.0000 0.0000 1.0000
vn 0.0000 -1.0000 0.0000
vn 0.0000 1.0000 0.0000
vn -0.9756 0.2195 0.0000
vn 0.9756 -0.2195 0.0000
vn 0.9756 0.2195 -0.0000
vn -0.9756 -0.2195 0.0000
s off
f 1//1 2//1 4//1 3//1
f 3//2 4//2 8//2 7//2
f 7//3 8//3 6//3 5//3
f 5//4 6//4 2//4 1//4
f 3//5 7//5 5//5 1//5
f 8//6 4//6 2//6 6//6
f 9//1 10//1 12//1 11//1
f 11//2 12//2 16//2 15//2
f 15//3 16//3 14//3 13//3
f 13//4 14//4 10//4 9//4
f 11//5 15//5 13//5 9//5
f 16//6 12//6 10//6 14//6
f 17//7 18//7 20//7 19//7
f 19//2 20//2 24//2 23//2
f 23//8 24//8 22//8 21//8
f 21//4 22//4 18//4 17//4
f 19//5 23//5 21//5 17//5
f 24//6 20//6 18//6 22//6
f 25//9 26//9 28//9 27//9
f 27//4 28//4 32//4 31//4
f 31//10 32//10 30//10 29//10
f 29//2 30//2 26//2 25//2
f 27//5 31//5 29//5 25//5
f 32//6 28//6 26//6 30//6
f 33//1 34//1 36//1 35//1
f 35//2 36//2 40//2 39//2
f 39//3 40//3 38//3 37//3
f 37//4 38//4 34//4 33//4
f 35//5 39//5 37//5 33//5
f 40//6 36//6 34//6 38//6
