# Blender v2.78 (sub 0) OBJ File: ''
# www.blender.org
mtllib marx_stage_mirrored.mtl
o Cube.003_Cube.013
v -0.999999 -0.000001 0.000001
v -0.999999 -0.000001 1.000000
v 1.000000 -0.000000 1.000000
v 1.000000 0.000000 0.000000
v -1.000000 0.499999 0.000001
v 1.000000 0.500000 0.000001
v 1.000000 0.500000 1.000000
v -0.999999 0.499999 1.000000
v 0.625002 0.375000 1.437500
v 0.625002 1.125000 1.437500
v 0.625002 1.125000 1.187500
v 0.625002 0.375000 1.187500
v 0.375002 1.125000 1.187500
v 0.375002 0.375000 1.187500
v 0.375002 1.125000 1.437500
v 0.375002 0.375000 1.437500
v -0.437498 0.187500 1.375000
v -0.437498 0.312500 1.375000
v -0.437498 0.312500 1.000000
v -0.437498 0.187500 1.000000
v -0.562498 0.187500 1.000000
v -0.562498 0.312500 1.000000
v -0.562498 0.312500 1.375000
v -0.562498 0.187500 1.375000
v -0.187498 0.385723 -0.187500
v -0.010721 0.562500 -0.187500
v -0.010721 0.562500 -0.437500
v -0.187498 0.385723 -0.437500
v -0.187498 0.739277 -0.437500
v -0.364275 0.562500 -0.437500
v -0.187498 0.739277 -0.187500
v -0.364275 0.562500 -0.187500
v -0.455804 0.205806 -0.250000
v -0.102251 0.559359 -0.250000
v -0.102251 0.559359 -0.373125
v -0.455804 0.205806 -0.373125
v -0.190639 0.647748 -0.373125
v -0.544192 0.294194 -0.373125
v -0.190639 0.647748 -0.250000
v -0.544192 0.294194 -0.250000
v -0.562498 0.312500 -0.375000
v -0.437498 0.312500 -0.375000
v -0.437498 0.312500 0.000000
v -0.562498 0.312500 0.000000
v -0.562498 0.187500 0.000000
v -0.437498 0.187500 0.000000
v -0.437498 0.187500 -0.375000
v -0.562498 0.187500 -0.375000
v -0.374998 0.375000 1.437500
v -0.374998 1.125000 1.437500
v -0.374998 1.125000 1.187500
v -0.374998 0.375000 1.187500
v -0.624998 1.125000 1.187500
v -0.624998 0.375000 1.187500
v -0.624998 1.125000 1.437500
v -0.624998 0.375000 1.437500
v -0.374998 0.500000 0.625000
v -0.374998 1.000000 0.625000
v -0.374998 1.000000 0.375000
v -0.374998 0.500000 0.375000
v -0.624998 1.000000 0.375000
v -0.624998 0.500000 0.375000
v -0.624998 1.000000 0.625000
v -0.624998 0.500000 0.625000
v -0.250000 0.687500 0.750000
v -0.250000 0.812500 0.750000
v -0.250000 0.812500 0.250000
v -0.250000 0.687500 0.250000
v -0.750000 0.812500 0.250000
v -0.750000 0.687500 0.250000
v -0.750000 0.812500 0.750000
v -0.750000 0.687500 0.750000
v -0.437498 0.312500 1.375000
v -0.437498 1.187500 1.375000
v -0.437498 1.187500 1.250000
v -0.437498 0.312500 1.250000
v -0.562498 1.187500 1.250000
v -0.562498 0.312500 1.250000
v -0.562498 1.187500 1.375000
v -0.562498 0.312500 1.375000
v 0.562502 0.187500 1.375000
v 0.562502 0.312500 1.375000
v 0.562502 0.312500 1.000000
v 0.562502 0.187500 1.000000
v 0.437502 0.187500 1.000000
v 0.437502 0.312500 1.000000
v 0.437502 0.312500 1.375000
v 0.437502 0.187500 1.375000
v 0.625002 0.500000 0.625000
v 0.625002 1.000000 0.625000
v 0.625002 1.000000 0.375000
v 0.625002 0.500000 0.375000
v 0.375002 1.000000 0.375000
v 0.375002 0.500000 0.375000
v 0.375002 1.000000 0.625000
v 0.375002 0.500000 0.625000
v 0.750000 0.687500 0.750000
v 0.750000 0.812500 0.750000
v 0.750000 0.812500 0.250000
v 0.750000 0.687500 0.250000
v 0.250000 0.812500 0.250000
v 0.250000 0.687500 0.250000
v 0.250000 0.812500 0.750000
v 0.250000 0.687500 0.750000
v 0.562502 0.312500 1.375000
v 0.562501 1.187500 1.375000
v 0.562501 1.187500 1.250000
v 0.562502 0.312500 1.250000
v 0.437501 1.187500 1.250000
v 0.437502 0.312500 1.250000
v 0.437501 1.187500 1.375000
v 0.437502 0.312500 1.375000
v 0.187502 0.114277 -0.187500
v 0.010725 -0.062500 -0.187500
v 0.010725 -0.062500 -0.437500
v 0.187502 0.114276 -0.437500
v 0.187502 -0.239277 -0.437500
v 0.364278 -0.062500 -0.437500
v 0.187502 -0.239277 -0.187500
v 0.364279 -0.062500 -0.187500
v 0.455808 0.294194 -0.250000
v 0.102254 -0.059359 -0.250000
v 0.102254 -0.059359 -0.373125
v 0.455807 0.294194 -0.373125
v 0.190643 -0.147748 -0.373125
v 0.544196 0.205806 -0.373125
v 0.190643 -0.147748 -0.250000
v 0.544196 0.205806 -0.250000
v 0.562502 0.187500 -0.375000
v 0.437502 0.187500 -0.375000
v 0.437502 0.187500 0.000000
v 0.562502 0.187500 0.000000
v 0.562502 0.312500 0.000000
v 0.437502 0.312500 0.000000
v 0.437502 0.312500 -0.375000
v 0.562502 0.312500 -0.375000
vt 0.1250 0.5000
vt 0.1250 0.2500
vt 0.0000 0.2500
vt 0.0000 0.5000
vt 0.0000 0.2500
vt 0.1250 0.2500
vt 0.1250 -0.0000
vt 0.0000 -0.0000
vt -0.0000 0.5000
vt -0.0000 0.6250
vt 0.0625 0.6250
vt 0.0625 0.5000
vt 0.1250 0.1250
vt 0.3750 0.1250
vt 0.3750 0.0625
vt 0.1250 0.0625
vt 0.1250 0.6250
vt 0.1250 0.5000
vt 0.0625 0.5000
vt 0.0625 0.6250
vt 0.3750 -0.0000
vt 0.1250 -0.0000
vt 0.1250 0.0625
vt 0.3750 0.0625
vt 0.1953 0.2266
vt 0.2266 0.2266
vt 0.2266 0.1328
vt 0.1953 0.1328
vt 0.1641 0.1328
vt 0.1328 0.1328
vt 0.1328 0.2266
vt 0.1641 0.2266
vt 0.1641 0.2266
vt 0.1328 0.2266
vt 0.1328 0.3203
vt 0.1641 0.3203
vt 0.1953 0.1328
vt 0.1641 0.1328
vt 0.1641 0.2266
vt 0.1953 0.2266
vt 0.1953 0.2266
vt 0.1641 0.2266
vt 0.1641 0.2578
vt 0.1953 0.2578
vt 0.2266 0.2578
vt 0.2266 0.2266
vt 0.1953 0.2266
vt 0.1953 0.2578
vt 0.4219 0.2031
vt 0.4219 0.1562
vt 0.4062 0.1562
vt 0.4062 0.2031
vt 0.3906 0.1562
vt 0.3906 0.2031
vt 0.4062 0.2031
vt 0.4062 0.1562
vt 0.4297 0.2031
vt 0.4141 0.2031
vt 0.4141 0.2188
vt 0.4297 0.2188
vt 0.4531 0.2031
vt 0.4531 0.1562
vt 0.4375 0.1562
vt 0.4375 0.2031
vt 0.4219 0.1562
vt 0.4219 0.2031
vt 0.4375 0.2031
vt 0.4375 0.1562
vt 0.3750 0.0938
vt 0.4062 0.0938
vt 0.4062 0.0625
vt 0.3750 0.0625
vt 0.4062 0.1250
vt 0.3750 0.1250
vt 0.3750 0.1562
vt 0.4062 0.1562
vt 0.4688 0.1562
vt 0.4688 0.1250
vt 0.4375 0.1250
vt 0.4375 0.1562
vt 0.4375 0.0938
vt 0.4062 0.0938
vt 0.4062 0.1250
vt 0.3750 0.0938
vt 0.3750 0.1250
vt 0.3438 0.1250
vt 0.3438 0.1562
vt 0.4844 0.0625
vt 0.4688 0.0625
vt 0.4688 0.1250
vt 0.4844 0.1250
vt 0.4531 0.0625
vt 0.4375 0.0625
vt 0.4375 0.1250
vt 0.4531 0.1250
vt 0.4844 0.1250
vt 0.5000 0.1250
vt 0.5000 0.0625
vt 0.4844 0.0625
vt 0.4531 0.1250
vt 0.4688 0.1250
vt 0.4688 0.0625
vt 0.4531 0.0625
vt 0.4844 0.1719
vt 0.4844 0.1250
vt 0.4688 0.1250
vt 0.4688 0.1719
vt 0.4375 0.1719
vt 0.4375 0.1250
vt 0.4219 0.1250
vt 0.4219 0.1719
vt 0.3906 0.1719
vt 0.3906 0.1562
vt 0.3750 0.1562
vt 0.3750 0.1719
vt 0.4062 0.1250
vt 0.4062 0.1719
vt 0.4219 0.1719
vt 0.4219 0.1250
vt 0.5000 0.1719
vt 0.5000 0.1250
vt 0.4844 0.1250
vt 0.4844 0.1719
vt 0.1953 0.2266
vt 0.2266 0.2266
vt 0.2266 0.1328
vt 0.1953 0.1328
vt 0.1641 0.1328
vt 0.1328 0.1328
vt 0.1328 0.2266
vt 0.1641 0.2266
vt 0.1641 0.2266
vt 0.1328 0.2266
vt 0.1328 0.3203
vt 0.1641 0.3203
vt 0.1953 0.1328
vt 0.1641 0.1328
vt 0.1641 0.2266
vt 0.1953 0.2266
vt 0.1953 0.2266
vt 0.1641 0.2266
vt 0.1641 0.2578
vt 0.1953 0.2578
vt 0.2266 0.2578
vt 0.2266 0.2266
vt 0.1953 0.2266
vt 0.1953 0.2578
vt 0.2266 0.4609
vt 0.2578 0.4609
vt 0.2578 0.3984
vt 0.2266 0.3984
vt 0.2578 0.3359
vt 0.2266 0.3359
vt 0.2266 0.3984
vt 0.1953 0.3359
vt 0.1953 0.3984
vt 0.2266 0.3984
vt 0.1953 0.3984
vt 0.1953 0.4609
vt 0.2266 0.4609
vt 0.2578 0.3984
vt 0.2578 0.4609
vt 0.2734 0.4609
vt 0.2734 0.3984
vt 0.2734 0.3359
vt 0.2734 0.3984
vt 0.2891 0.3984
vt 0.2891 0.3359
vt 0.2734 0.4609
vt 0.2891 0.4609
vt 0.2578 0.3359
vt 0.2734 0.3359
vt 0.1328 0.3984
vt 0.1328 0.4609
vt 0.1953 0.4609
vt 0.1953 0.3984
vt 0.1328 0.3359
vt 0.1328 0.3984
vt 0.1953 0.3984
vt 0.1953 0.3359
vt 0.4219 0.1172
vt 0.4375 0.1172
vt 0.4375 0.0078
vt 0.4219 0.0078
vt 0.3906 0.3984
vt 0.4062 0.3984
vt 0.4062 0.2891
vt 0.3906 0.2891
vt 0.4688 0.0703
vt 0.4531 0.0703
vt 0.4531 0.1797
vt 0.4688 0.1797
vt 0.4141 0.0938
vt 0.3984 0.0938
vt 0.3984 0.2031
vt 0.4141 0.2031
vt 0.4219 0.2031
vt 0.4219 0.1562
vt 0.4062 0.1562
vt 0.4062 0.2031
vt 0.3906 0.1562
vt 0.3906 0.2031
vt 0.4062 0.2031
vt 0.4062 0.1562
vt 0.4297 0.2031
vt 0.4141 0.2031
vt 0.4141 0.2188
vt 0.4297 0.2188
vt 0.4531 0.2031
vt 0.4531 0.1562
vt 0.4375 0.1562
vt 0.4375 0.2031
vt 0.4219 0.1562
vt 0.4219 0.2031
vt 0.4375 0.2031
vt 0.4375 0.1562
vt 0.2266 0.4609
vt 0.2578 0.4609
vt 0.2578 0.3984
vt 0.2266 0.3984
vt 0.2578 0.3359
vt 0.2266 0.3359
vt 0.2266 0.3984
vt 0.1953 0.3359
vt 0.1953 0.3984
vt 0.2266 0.3984
vt 0.1953 0.3984
vt 0.1953 0.4609
vt 0.2266 0.4609
vt 0.2578 0.3984
vt 0.2578 0.4609
vt 0.2734 0.4609
vt 0.2734 0.3984
vt 0.2734 0.3359
vt 0.2734 0.3984
vt 0.2891 0.3984
vt 0.2891 0.3359
vt 0.2734 0.4609
vt 0.2891 0.4609
vt 0.2578 0.3359
vt 0.2734 0.3359
vt 0.1328 0.3984
vt 0.1328 0.4609
vt 0.1953 0.4609
vt 0.1953 0.3984
vt 0.1328 0.3359
vt 0.1328 0.3984
vt 0.1953 0.3984
vt 0.1953 0.3359
vt 0.4219 0.1172
vt 0.4375 0.1172
vt 0.4375 0.0078
vt 0.4219 0.0078
vt 0.3906 0.3984
vt 0.4062 0.3984
vt 0.4062 0.2891
vt 0.3906 0.2891
vt 0.4688 0.0703
vt 0.4531 0.0703
vt 0.4531 0.1797
vt 0.4688 0.1797
vt 0.4141 0.0938
vt 0.3984 0.0938
vt 0.3984 0.2031
vt 0.4141 0.2031
vt 0.3750 0.0938
vt 0.4062 0.0938
vt 0.4062 0.0625
vt 0.3750 0.0625
vt 0.4062 0.1250
vt 0.3750 0.1250
vt 0.3750 0.1562
vt 0.4062 0.1562
vt 0.4688 0.1562
vt 0.4688 0.1250
vt 0.4375 0.1250
vt 0.4375 0.1562
vt 0.4375 0.0938
vt 0.4062 0.0938
vt 0.4062 0.1250
vt 0.3750 0.0938
vt 0.3750 0.1250
vt 0.3438 0.1250
vt 0.3438 0.1562
vt 0.4844 0.0625
vt 0.4688 0.0625
vt 0.4688 0.1250
vt 0.4844 0.1250
vt 0.4531 0.0625
vt 0.4375 0.0625
vt 0.4375 0.1250
vt 0.4531 0.1250
vt 0.4844 0.1250
vt 0.5000 0.1250
vt 0.5000 0.0625
vt 0.4844 0.0625
vt 0.4531 0.1250
vt 0.4688 0.1250
vt 0.4688 0.0625
vt 0.4531 0.0625
vt 0.4844 0.1719
vt 0.4844 0.1250
vt 0.4688 0.1250
vt 0.4688 0.1719
vt 0.4375 0.1719
vt 0.4375 0.1250
vt 0.4219 0.1250
vt 0.4219 0.1719
vt 0.3906 0.1719
vt 0.3906 0.1562
vt 0.3750 0.1562
vt 0.3750 0.1719
vt 0.4062 0.1250
vt 0.4062 0.1719
vt 0.4219 0.1719
vt 0.4219 0.1250
vt 0.5000 0.1719
vt 0.5000 0.1250
vt 0.4844 0.1250
vt 0.4844 0.1719
vn 0.0000 -1.0000 -0.0000
vn -0.0000 1.0000 0.0000
vn -1.0000 -0.0000 0.0000
vn 0.0000 0.0000 1.0000
vn 1.0000 0.0000 0.0000
vn -0.0000 0.0000 -1.0000
vn 0.7071 -0.7071 0.0000
vn -0.7071 0.7071 0.0000
vn -0.7071 -0.7071 0.0000
vn 0.7071 0.7071 0.0000
usemtl marx.001
s 1
f 1/1/1 4/2/1 3/3/1 2/4/1
f 5/5/2 8/6/2 7/7/2 6/8/2
f 1/9/3 2/10/3 8/11/3 5/12/3
f 2/13/4 3/14/4 7/15/4 8/16/4
f 3/17/5 4/18/5 6/19/5 7/20/5
f 5/21/6 6/22/6 4/23/6 1/24/6
f 9/25/5 12/26/5 11/27/5 10/28/5
f 12/29/6 14/30/6 13/31/6 11/32/6
f 14/33/3 16/34/3 15/35/3 13/36/3
f 16/37/4 9/38/4 10/39/4 15/40/4
f 12/41/1 9/42/1 16/43/1 14/44/1
f 13/45/2 15/46/2 10/47/2 11/48/2
f 17/49/5 20/50/5 19/51/5 18/52/5
f 21/53/3 24/54/3 23/55/3 22/56/3
f 24/57/4 17/58/4 18/59/4 23/60/4
f 20/61/1 17/62/1 24/63/1 21/64/1
f 22/65/2 23/66/2 18/67/2 19/68/2
f 25/69/7 28/70/7 27/71/7 26/72/7
f 28/73/6 30/74/6 29/75/6 27/76/6
f 30/77/8 32/78/8 31/79/8 29/80/8
f 32/81/4 25/82/4 26/83/4 31/79/4
f 28/73/9 25/82/9 32/84/9 30/74/9
f 29/75/10 31/85/10 26/86/10 27/87/10
f 33/88/7 36/89/7 35/90/7 34/91/7
f 36/92/6 38/93/6 37/94/6 35/95/6
f 38/96/8 40/97/8 39/98/8 37/99/8
f 40/100/4 33/101/4 34/102/4 39/103/4
f 41/104/2 44/105/2 43/106/2 42/107/2
f 45/108/1 48/109/1 47/110/1 46/111/1
f 48/112/6 41/113/6 42/114/6 47/115/6
f 44/116/3 41/117/3 48/118/3 45/119/3
f 46/120/5 47/121/5 42/122/5 43/123/5
f 49/124/5 52/125/5 51/126/5 50/127/5
f 52/128/6 54/129/6 53/130/6 51/131/6
f 54/132/3 56/133/3 55/134/3 53/135/3
f 56/136/4 49/137/4 50/138/4 55/139/4
f 52/140/1 49/141/1 56/142/1 54/143/1
f 53/144/2 55/145/2 50/146/2 51/147/2
f 57/148/5 60/149/5 59/150/5 58/151/5
f 60/152/6 62/153/6 61/154/6 59/150/6
f 62/153/3 64/155/3 63/156/3 61/154/3
f 64/157/4 57/158/4 58/159/4 63/160/4
f 65/161/5 68/162/5 67/163/5 66/164/5
f 68/165/6 70/166/6 69/167/6 67/168/6
f 70/166/3 72/169/3 71/170/3 69/167/3
f 72/171/4 65/161/4 66/164/4 71/172/4
f 68/173/1 65/174/1 72/175/1 70/176/1
f 69/177/2 71/178/2 66/179/2 67/180/2
f 73/181/5 76/182/5 75/183/5 74/184/5
f 76/185/6 78/186/6 77/187/6 75/188/6
f 78/189/3 80/190/3 79/191/3 77/192/3
f 80/193/4 73/194/4 74/195/4 79/196/4
f 81/197/5 84/198/5 83/199/5 82/200/5
f 85/201/3 88/202/3 87/203/3 86/204/3
f 88/205/4 81/206/4 82/207/4 87/208/4
f 84/209/1 81/210/1 88/211/1 85/212/1
f 86/213/2 87/214/2 82/215/2 83/216/2
f 89/217/5 92/218/5 91/219/5 90/220/5
f 92/221/6 94/222/6 93/223/6 91/219/6
f 94/222/3 96/224/3 95/225/3 93/223/3
f 96/226/4 89/227/4 90/228/4 95/229/4
f 97/230/5 100/231/5 99/232/5 98/233/5
f 100/234/6 102/235/6 101/236/6 99/237/6
f 102/235/3 104/238/3 103/239/3 101/236/3
f 104/240/4 97/230/4 98/233/4 103/241/4
f 100/242/1 97/243/1 104/244/1 102/245/1
f 101/246/2 103/247/2 98/248/2 99/249/2
f 105/250/5 108/251/5 107/252/5 106/253/5
f 108/254/6 110/255/6 109/256/6 107/257/6
f 110/258/3 112/259/3 111/260/3 109/261/3
f 112/262/4 105/263/4 106/264/4 111/265/4
f 113/266/8 116/267/8 115/268/8 114/269/8
f 116/270/6 118/271/6 117/272/6 115/273/6
f 118/274/7 120/275/7 119/276/7 117/277/7
f 120/278/4 113/279/4 114/280/4 119/276/4
f 116/270/10 113/279/10 120/281/10 118/271/10
f 117/272/9 119/282/9 114/283/9 115/284/9
f 121/285/8 124/286/8 123/287/8 122/288/8
f 124/289/6 126/290/6 125/291/6 123/292/6
f 126/293/7 128/294/7 127/295/7 125/296/7
f 128/297/4 121/298/4 122/299/4 127/300/4
f 129/301/1 132/302/1 131/303/1 130/304/1
f 133/305/2 136/306/2 135/307/2 134/308/2
f 136/309/6 129/310/6 130/311/6 135/312/6
f 132/313/5 129/314/5 136/315/5 133/316/5
f 134/317/3 135/318/3 130/319/3 131/320/3
