# Blender v2.78 (sub 0) OBJ File: 'NewMarx.blend'
# www.blender.org
mtllib marx_top.mtl
o Cube.037_Cube.157
v 1.406250 0.062500 -3.406250
v 1.406250 0.187500 -3.406250
v 1.406250 0.062500 -3.593750
v 1.406250 0.187500 -3.593750
v 1.593750 0.062500 -3.406250
v 1.593750 0.187500 -3.406250
v 1.593750 0.062500 -3.593750
v 1.593750 0.187500 -3.593750
vt 0.4531 0.1641
vt 0.4375 0.1641
vt 0.4375 0.1406
vt 0.4531 0.1406
vt 0.4375 0.1172
vt 0.4531 0.1172
vt 0.4375 0.1406
vt 0.4219 0.1406
vt 0.4219 0.1172
vt 0.4375 0.1172
vt 0.4219 0.1406
vt 0.4375 0.1406
vt 0.4219 0.1641
vt 0.3984 0.1641
vt 0.3984 0.1406
vt 0.4219 0.1172
vt 0.4219 0.1406
vt 0.3984 0.1406
vt 0.3984 0.1172
vn -1.0000 0.0000 0.0000
vn 0.0000 0.0000 -1.0000
vn 1.0000 0.0000 0.0000
vn 0.0000 0.0000 1.0000
vn 0.0000 -1.0000 0.0000
vn 0.0000 1.0000 0.0000
usemtl marx
f 1/1/1 2/2/1 4/3/1 3/4/1
f 3/4/2 4/3/2 8/5/2 7/6/2
f 7/7/3 8/8/3 6/9/3 5/10/3
f 5/11/4 6/12/4 2/2/4 1/13/4
f 3/14/5 7/15/5 5/11/5 1/13/5
f 8/16/6 4/17/6 2/18/6 6/19/6
o Cube.027_Cube.115
v 1.437500 0.187500 0.000000
v 1.437500 0.312500 0.000000
v 1.437500 0.187500 -3.562500
v 1.437500 0.312500 -3.562500
v 1.562500 0.187500 0.000000
v 1.562500 0.312500 0.000000
v 1.562500 0.187500 -3.562500
v 1.562500 0.312500 -3.562500
vt 0.4219 0.4453
vt 0.4062 0.4453
vt 0.4062 -0.0000
vt 0.4219 -0.0000
vt 0.4375 0.0156
vt 0.4375 -0.0000
vt 0.4531 -0.0000
vt 0.4531 0.0156
vt 0.3906 0.4453
vt 0.3750 0.4453
vt 0.3750 -0.0000
vt 0.3906 -0.0000
vt 0.3906 -0.0000
vt 0.4062 -0.0000
vt 0.4062 0.4453
vt 0.3906 0.4453
vt 0.4375 0.4453
vt 0.4219 0.4453
vt 0.4219 -0.0000
vt 0.4375 -0.0000
vn -1.0000 0.0000 0.0000
vn 0.0000 0.0000 -1.0000
vn 1.0000 0.0000 0.0000
vn 0.0000 -1.0000 0.0000
vn 0.0000 1.0000 0.0000
usemtl marx
f 9/20/7 10/21/7 12/22/7 11/23/7
f 11/24/8 12/25/8 16/26/8 15/27/8
f 15/28/9 16/29/9 14/30/9 13/31/9
f 11/32/10 15/33/10 13/34/10 9/35/10
f 16/36/11 12/37/11 10/38/11 14/39/11
o Cube.013_Cube.035
v 1.999999 -0.000001 0.000001
v 1.999999 -0.000001 1.000000
v 0.000000 0.000000 1.000000
v 0.000000 0.000000 0.000000
v 2.000000 0.499999 0.000001
v 1.999999 0.499999 1.000000
v -0.000000 0.500000 1.000000
v 0.000000 0.500000 0.000001
vt 0.1250 0.5000
vt 0.0000 0.5000
vt 0.0000 0.2500
vt 0.1250 0.2500
vt 0.0000 0.2500
vt 0.0000 -0.0000
vt 0.1250 -0.0000
vt 0.1250 0.2500
vt -0.0000 0.5000
vt 0.0625 0.5000
vt 0.0625 0.6250
vt -0.0000 0.6250
vt 0.1250 0.1250
vt 0.1250 0.0625
vt 0.3750 0.0625
vt 0.3750 0.1250
vt 0.1250 0.6250
vt 0.0625 0.6250
vt 0.0625 0.5000
vt 0.1250 0.5000
vt 0.3750 -0.0000
vt 0.3750 0.0625
vt 0.1250 0.0625
vt 0.1250 -0.0000
vn -0.0000 -1.0000 0.0000
vn 0.0000 1.0000 -0.0000
vn 1.0000 -0.0000 0.0000
vn -0.0000 -0.0000 1.0000
vn -1.0000 -0.0000 -0.0000
vn 0.0000 0.0000 -1.0000
usemtl marx
f 17/40/12 18/41/12 19/42/12 20/43/12
f 21/44/13 24/45/13 23/46/13 22/47/13
f 17/48/14 21/49/14 22/50/14 18/51/14
f 18/52/15 22/53/15 23/54/15 19/55/15
f 19/56/16 23/57/16 24/58/16 20/59/16
f 21/60/17 17/61/17 20/62/17 24/63/17
o Cube.019_Cube.036
v 1.437498 0.187500 1.375000
v 1.437498 0.312500 1.375000
v 1.437498 0.187500 1.000000
v 1.437498 0.312500 1.000000
v 1.562498 0.187500 1.375000
v 1.562498 0.312500 1.375000
v 1.562498 0.187500 1.000000
v 1.562498 0.312500 1.000000
vt 0.4219 0.2031
vt 0.4062 0.2031
vt 0.4062 0.1562
vt 0.4219 0.1562
vt 0.3906 0.1562
vt 0.4062 0.1562
vt 0.4062 0.2031
vt 0.3906 0.2031
vt 0.4297 0.2031
vt 0.4297 0.2188
vt 0.4141 0.2188
vt 0.4141 0.2031
vt 0.4531 0.2031
vt 0.4375 0.2031
vt 0.4375 0.1562
vt 0.4531 0.1562
vt 0.4219 0.1562
vt 0.4375 0.1562
vt 0.4375 0.2031
vt 0.4219 0.2031
vn -1.0000 0.0000 0.0000
vn 1.0000 0.0000 0.0000
vn -0.0000 0.0000 1.0000
vn -0.0000 -1.0000 0.0000
vn 0.0000 1.0000 0.0000
usemtl marx
f 25/64/18 26/65/18 28/66/18 27/67/18
f 31/68/19 32/69/19 30/70/19 29/71/19
f 29/72/20 30/73/20 26/74/20 25/75/20
f 27/76/21 31/77/21 29/78/21 25/79/21
f 32/80/22 28/81/22 26/82/22 30/83/22
o Cube.023_Cube.037
v 0.437498 0.187500 1.375000
v 0.437498 0.312500 1.375000
v 0.437498 0.187500 1.000000
v 0.437498 0.312500 1.000000
v 0.562498 0.187500 1.375000
v 0.562498 0.312500 1.375000
v 0.562498 0.187500 1.000000
v 0.562498 0.312500 1.000000
vt 0.4219 0.2031
vt 0.4062 0.2031
vt 0.4062 0.1562
vt 0.4219 0.1562
vt 0.3906 0.1562
vt 0.4062 0.1562
vt 0.4062 0.2031
vt 0.3906 0.2031
vt 0.4297 0.2031
vt 0.4297 0.2188
vt 0.4141 0.2188
vt 0.4141 0.2031
vt 0.4531 0.2031
vt 0.4375 0.2031
vt 0.4375 0.1562
vt 0.4531 0.1562
vt 0.4219 0.1562
vt 0.4375 0.1562
vt 0.4375 0.2031
vt 0.4219 0.2031
vn -1.0000 0.0000 0.0000
vn 1.0000 -0.0000 0.0000
vn -0.0000 0.0000 1.0000
vn -0.0000 -1.0000 0.0000
vn 0.0000 1.0000 0.0000
usemtl marx
f 33/84/23 34/85/23 36/86/23 35/87/23
f 39/88/24 40/89/24 38/90/24 37/91/24
f 37/92/25 38/93/25 34/94/25 33/95/25
f 35/96/26 39/97/26 37/98/26 33/99/26
f 40/100/27 36/101/27 34/102/27 38/103/27
o Cube.024_Cube.038
v 0.812498 0.114277 -0.187500
v 0.989275 -0.062500 -0.187500
v 0.812498 0.114276 -0.437500
v 0.989275 -0.062500 -0.437500
v 0.635721 -0.062500 -0.187500
v 0.812498 -0.239277 -0.187500
v 0.635722 -0.062500 -0.437500
v 0.812498 -0.239277 -0.437500
v 0.544192 0.294194 -0.250000
v 0.897746 -0.059359 -0.250000
v 0.544193 0.294194 -0.373125
v 0.897746 -0.059359 -0.373125
v 0.455804 0.205806 -0.250000
v 0.809357 -0.147748 -0.250000
v 0.455804 0.205806 -0.373125
v 0.809357 -0.147748 -0.373125
v 0.437498 0.187500 -0.375000
v 0.562498 0.187500 -0.375000
v 0.437498 0.187500 -0.000000
v 0.562498 0.187500 0.000000
v 0.437498 0.312500 -0.375000
v 0.562498 0.312500 -0.375000
v 0.437498 0.312500 -0.000000
v 0.562498 0.312500 0.000000
vt 0.3750 0.0938
vt 0.3750 0.0625
vt 0.4062 0.0625
vt 0.4062 0.0938
vt 0.4062 0.1250
vt 0.4062 0.1562
vt 0.3750 0.1562
vt 0.3750 0.1250
vt 0.4688 0.1562
vt 0.4375 0.1562
vt 0.4375 0.1250
vt 0.4688 0.1250
vt 0.4375 0.0938
vt 0.4062 0.1250
vt 0.4062 0.0938
vt 0.3750 0.0938
vt 0.3438 0.1562
vt 0.3438 0.1250
vt 0.3750 0.1250
vt 0.4844 0.0625
vt 0.4844 0.1250
vt 0.4688 0.1250
vt 0.4688 0.0625
vt 0.4531 0.0625
vt 0.4531 0.1250
vt 0.4375 0.1250
vt 0.4375 0.0625
vt 0.4844 0.1250
vt 0.4844 0.0625
vt 0.5000 0.0625
vt 0.5000 0.1250
vt 0.4531 0.1250
vt 0.4531 0.0625
vt 0.4688 0.0625
vt 0.4688 0.1250
vt 0.4844 0.1719
vt 0.4688 0.1719
vt 0.4688 0.1250
vt 0.4844 0.1250
vt 0.4375 0.1719
vt 0.4219 0.1719
vt 0.4219 0.1250
vt 0.4375 0.1250
vt 0.3906 0.1719
vt 0.3750 0.1719
vt 0.3750 0.1562
vt 0.3906 0.1562
vt 0.4062 0.1250
vt 0.4219 0.1250
vt 0.4219 0.1719
vt 0.4062 0.1719
vt 0.5000 0.1719
vt 0.4844 0.1719
vt 0.4844 0.1250
vt 0.5000 0.1250
vn 0.7071 0.7071 0.0000
vn 0.0000 -0.0000 -1.0000
vn -0.7071 -0.7071 -0.0000
vn -0.0000 0.0000 1.0000
vn -0.7071 0.7071 -0.0000
vn 0.7071 -0.7071 0.0000
vn -0.0000 -1.0000 0.0000
vn 0.0000 1.0000 0.0000
vn -1.0000 0.0000 -0.0000
vn 1.0000 -0.0000 0.0000
usemtl marx
f 41/104/28 42/105/28 44/106/28 43/107/28
f 43/108/29 44/109/29 48/110/29 47/111/29
f 47/112/30 48/113/30 46/114/30 45/115/30
f 45/116/31 46/114/31 42/117/31 41/118/31
f 43/108/32 47/111/32 45/119/32 41/118/32
f 48/110/33 44/120/33 42/121/33 46/122/33
f 49/123/28 50/124/28 52/125/28 51/126/28
f 51/127/29 52/128/29 56/129/29 55/130/29
f 55/131/30 56/132/30 54/133/30 53/134/30
f 53/135/31 54/136/31 50/137/31 49/138/31
f 57/139/34 58/140/34 60/141/34 59/142/34
f 63/143/35 64/144/35 62/145/35 61/146/35
f 61/147/29 62/148/29 58/149/29 57/150/29
f 59/151/36 63/152/36 61/153/36 57/154/36
f 64/155/37 60/156/37 58/157/37 62/158/37
